G04 #@! TF.GenerationSoftware,KiCad,Pcbnew,(5.99.0-10337-g2ae264751f)*
G04 #@! TF.CreationDate,2021-04-30T16:38:17-07:00*
G04 #@! TF.ProjectId,single-col,73696e67-6c65-42d6-936f-6c2e6b696361,rev?*
G04 #@! TF.SameCoordinates,Original*
G04 #@! TF.FileFunction,Soldermask,Bot*
G04 #@! TF.FilePolarity,Negative*
%FSLAX46Y46*%
G04 Gerber Fmt 4.6, Leading zero omitted, Abs format (unit mm)*
G04 Created by KiCad (PCBNEW (5.99.0-10337-g2ae264751f)) date 2021-04-30 16:38:17*
%MOMM*%
%LPD*%
G01*
G04 APERTURE LIST*
G04 Aperture macros list*
%AMRoundRect*
0 Rectangle with rounded corners*
0 $1 Rounding radius*
0 $2 $3 $4 $5 $6 $7 $8 $9 X,Y pos of 4 corners*
0 Add a 4 corners polygon primitive as box body*
4,1,4,$2,$3,$4,$5,$6,$7,$8,$9,$2,$3,0*
0 Add four circle primitives for the rounded corners*
1,1,$1+$1,$2,$3*
1,1,$1+$1,$4,$5*
1,1,$1+$1,$6,$7*
1,1,$1+$1,$8,$9*
0 Add four rect primitives between the rounded corners*
20,1,$1+$1,$2,$3,$4,$5,0*
20,1,$1+$1,$4,$5,$6,$7,0*
20,1,$1+$1,$6,$7,$8,$9,0*
20,1,$1+$1,$8,$9,$2,$3,0*%
G04 Aperture macros list end*
%ADD10R,2.400000X0.820000*%
%ADD11R,1.000000X1.000000*%
%ADD12O,1.000000X1.000000*%
%ADD13R,1.524000X1.524000*%
%ADD14C,1.701800*%
%ADD15C,3.000000*%
%ADD16C,3.987800*%
%ADD17R,2.550000X2.500000*%
%ADD18R,0.850000X0.850000*%
%ADD19RoundRect,0.250001X-0.624999X0.462499X-0.624999X-0.462499X0.624999X-0.462499X0.624999X0.462499X0*%
G04 APERTURE END LIST*
D10*
X125130200Y-76040400D03*
X119530200Y-76040400D03*
X119530200Y-77540400D03*
X125130200Y-77540400D03*
D11*
X129275200Y-112564400D03*
D12*
X129275200Y-113834400D03*
X129275200Y-115104400D03*
X129275200Y-116374400D03*
X129275200Y-117644400D03*
X129275200Y-118914400D03*
D11*
X129375200Y-137089400D03*
D12*
X129375200Y-138359400D03*
X129375200Y-139629400D03*
D13*
X115255200Y-52894400D03*
X115255200Y-56294400D03*
D14*
X117252700Y-172889400D03*
D15*
X124872700Y-177969400D03*
X126142700Y-175429400D03*
X118522700Y-175429400D03*
D14*
X127412700Y-172889400D03*
D16*
X122332700Y-172889400D03*
D15*
X119792700Y-177969400D03*
D17*
X129892700Y-175429400D03*
X116042700Y-177969400D03*
D15*
X118522700Y-152479400D03*
X124872700Y-155019400D03*
X126142700Y-152479400D03*
D14*
X117252700Y-149939400D03*
D15*
X119792700Y-155019400D03*
D14*
X127412700Y-149939400D03*
D16*
X122332700Y-149939400D03*
D17*
X129892700Y-152479400D03*
X116042700Y-155019400D03*
D13*
X115255200Y-167594400D03*
X115255200Y-170994400D03*
D10*
X125130200Y-53089400D03*
X119530200Y-53089400D03*
X119530200Y-54589400D03*
X125130200Y-54589400D03*
X125130200Y-144893400D03*
X119530200Y-144893400D03*
X119530200Y-146393400D03*
X125130200Y-146393400D03*
D13*
X115255200Y-121204400D03*
X115255200Y-124604400D03*
X115255200Y-144324400D03*
X115255200Y-147724400D03*
X115255200Y-98934400D03*
X115255200Y-102334400D03*
D11*
X129475200Y-100914400D03*
X129475200Y-102189400D03*
X115375200Y-112564400D03*
D12*
X115375200Y-113834400D03*
X115375200Y-115104400D03*
X115375200Y-116374400D03*
X115375200Y-117644400D03*
X115375200Y-118914400D03*
D15*
X118522700Y-129529400D03*
D14*
X127412700Y-126989400D03*
D15*
X126142700Y-129529400D03*
D14*
X117252700Y-126989400D03*
D15*
X124872700Y-132069400D03*
D16*
X122332700Y-126989400D03*
D15*
X119792700Y-132069400D03*
D17*
X129892700Y-129529400D03*
X116042700Y-132069400D03*
D10*
X125130200Y-121942400D03*
X119530200Y-121942400D03*
X119530200Y-123442400D03*
X125130200Y-123442400D03*
D11*
X125825200Y-91814400D03*
X124550200Y-91814400D03*
D15*
X119792700Y-63219400D03*
D14*
X117252700Y-58139400D03*
X127412700Y-58139400D03*
D15*
X118522700Y-60679400D03*
X126142700Y-60679400D03*
D16*
X122332700Y-58139400D03*
D15*
X124872700Y-63219400D03*
D17*
X129892700Y-60679400D03*
X116042700Y-63219400D03*
D15*
X118522700Y-83629400D03*
X124872700Y-86169400D03*
X126142700Y-83629400D03*
D14*
X127412700Y-81089400D03*
D16*
X122332700Y-81089400D03*
D15*
X119792700Y-86169400D03*
D14*
X117252700Y-81089400D03*
D17*
X129892700Y-83629400D03*
X116042700Y-86169400D03*
D11*
X128925200Y-145464400D03*
X128925200Y-146739400D03*
D15*
X126142700Y-106579400D03*
X124872700Y-109119400D03*
D14*
X117252700Y-104039400D03*
D16*
X122332700Y-104039400D03*
D15*
X118522700Y-106579400D03*
X119792700Y-109119400D03*
D14*
X127412700Y-104039400D03*
D17*
X129892700Y-106579400D03*
X116042700Y-109119400D03*
D18*
X121975200Y-140664400D03*
D10*
X125130200Y-98991400D03*
X119530200Y-98991400D03*
X119530200Y-100491400D03*
X125130200Y-100491400D03*
D11*
X115375200Y-137089400D03*
D12*
X115375200Y-138359400D03*
X115375200Y-139629400D03*
D13*
X115255200Y-75664400D03*
X115255200Y-79064400D03*
D10*
X125130200Y-167844400D03*
X119530200Y-167844400D03*
X119530200Y-169344400D03*
X125130200Y-169344400D03*
D19*
X126775200Y-135764400D03*
X126775200Y-138739400D03*
M02*
