G04 #@! TF.GenerationSoftware,KiCad,Pcbnew,(5.99.0-10337-g2ae264751f)*
G04 #@! TF.CreationDate,2021-04-30T16:38:17-07:00*
G04 #@! TF.ProjectId,single-col,73696e67-6c65-42d6-936f-6c2e6b696361,rev?*
G04 #@! TF.SameCoordinates,Original*
G04 #@! TF.FileFunction,Legend,Bot*
G04 #@! TF.FilePolarity,Positive*
%FSLAX46Y46*%
G04 Gerber Fmt 4.6, Leading zero omitted, Abs format (unit mm)*
G04 Created by KiCad (PCBNEW (5.99.0-10337-g2ae264751f)) date 2021-04-30 16:38:17*
%MOMM*%
%LPD*%
G01*
G04 APERTURE LIST*
%ADD10C,0.150000*%
%ADD11C,0.100000*%
%ADD12C,0.120000*%
G04 APERTURE END LIST*
D10*
X127875200Y-144624400D02*
X129825200Y-144624400D01*
X129825200Y-144624400D02*
X129825200Y-147524400D01*
X129825200Y-147524400D02*
X127875200Y-147524400D01*
X127875200Y-147524400D02*
X127875200Y-144624400D01*
X126725200Y-90814400D02*
X123825200Y-90814400D01*
X123825200Y-90814400D02*
X123825200Y-92764400D01*
X123825200Y-92764400D02*
X126725200Y-92764400D01*
X126725200Y-92764400D02*
X126725200Y-90814400D01*
X127975200Y-140064400D02*
X128775200Y-138864400D01*
X128425200Y-100064400D02*
X130375200Y-100064400D01*
X130375200Y-100064400D02*
X130375200Y-102964400D01*
X130375200Y-102964400D02*
X128425200Y-102964400D01*
X128425200Y-102964400D02*
X128425200Y-100064400D01*
X117241865Y-118216780D02*
X117575199Y-117740590D01*
X117813294Y-118216780D02*
X117813294Y-117216780D01*
X117432341Y-117216780D01*
X117337103Y-117264400D01*
X117289484Y-117312019D01*
X117241865Y-117407257D01*
X117241865Y-117550114D01*
X117289484Y-117645352D01*
X117337103Y-117692971D01*
X117432341Y-117740590D01*
X117813294Y-117740590D01*
X116337103Y-117216780D02*
X116813294Y-117216780D01*
X116860913Y-117692971D01*
X116813294Y-117645352D01*
X116718056Y-117597733D01*
X116479960Y-117597733D01*
X116384722Y-117645352D01*
X116337103Y-117692971D01*
X116289484Y-117788209D01*
X116289484Y-118026304D01*
X116337103Y-118121542D01*
X116384722Y-118169161D01*
X116479960Y-118216780D01*
X116718056Y-118216780D01*
X116813294Y-118169161D01*
X116860913Y-118121542D01*
X117241865Y-119516780D02*
X117575199Y-119040590D01*
X117813294Y-119516780D02*
X117813294Y-118516780D01*
X117432341Y-118516780D01*
X117337103Y-118564400D01*
X117289484Y-118612019D01*
X117241865Y-118707257D01*
X117241865Y-118850114D01*
X117289484Y-118945352D01*
X117337103Y-118992971D01*
X117432341Y-119040590D01*
X117813294Y-119040590D01*
X116384722Y-118516780D02*
X116575199Y-118516780D01*
X116670437Y-118564400D01*
X116718056Y-118612019D01*
X116813294Y-118754876D01*
X116860913Y-118945352D01*
X116860913Y-119326304D01*
X116813294Y-119421542D01*
X116765675Y-119469161D01*
X116670437Y-119516780D01*
X116479960Y-119516780D01*
X116384722Y-119469161D01*
X116337103Y-119421542D01*
X116289484Y-119326304D01*
X116289484Y-119088209D01*
X116337103Y-118992971D01*
X116384722Y-118945352D01*
X116479960Y-118897733D01*
X116670437Y-118897733D01*
X116765675Y-118945352D01*
X116813294Y-118992971D01*
X116860913Y-119088209D01*
X127218057Y-139764400D02*
X127313295Y-139716780D01*
X127456152Y-139716780D01*
X127599009Y-139764400D01*
X127694247Y-139859638D01*
X127741866Y-139954876D01*
X127789485Y-140145352D01*
X127789485Y-140288209D01*
X127741866Y-140478685D01*
X127694247Y-140573923D01*
X127599009Y-140669161D01*
X127456152Y-140716780D01*
X127360914Y-140716780D01*
X127218057Y-140669161D01*
X127170438Y-140621542D01*
X127170438Y-140288209D01*
X127360914Y-140288209D01*
X126741866Y-140050114D02*
X126741866Y-140716780D01*
X126741866Y-140145352D02*
X126694247Y-140097733D01*
X126599009Y-140050114D01*
X126456152Y-140050114D01*
X126360914Y-140097733D01*
X126313295Y-140192971D01*
X126313295Y-140716780D01*
X125408533Y-140716780D02*
X125408533Y-139716780D01*
X125408533Y-140669161D02*
X125503771Y-140716780D01*
X125694247Y-140716780D01*
X125789485Y-140669161D01*
X125837104Y-140621542D01*
X125884723Y-140526304D01*
X125884723Y-140240590D01*
X125837104Y-140145352D01*
X125789485Y-140097733D01*
X125694247Y-140050114D01*
X125503771Y-140050114D01*
X125408533Y-140097733D01*
X117241865Y-114316780D02*
X117575199Y-113840590D01*
X117813294Y-114316780D02*
X117813294Y-113316780D01*
X117432341Y-113316780D01*
X117337103Y-113364400D01*
X117289484Y-113412019D01*
X117241865Y-113507257D01*
X117241865Y-113650114D01*
X117289484Y-113745352D01*
X117337103Y-113792971D01*
X117432341Y-113840590D01*
X117813294Y-113840590D01*
X116860913Y-113412019D02*
X116813294Y-113364400D01*
X116718056Y-113316780D01*
X116479960Y-113316780D01*
X116384722Y-113364400D01*
X116337103Y-113412019D01*
X116289484Y-113507257D01*
X116289484Y-113602495D01*
X116337103Y-113745352D01*
X116908532Y-114316780D01*
X116289484Y-114316780D01*
X117241865Y-113016780D02*
X117575199Y-112540590D01*
X117813294Y-113016780D02*
X117813294Y-112016780D01*
X117432341Y-112016780D01*
X117337103Y-112064400D01*
X117289484Y-112112019D01*
X117241865Y-112207257D01*
X117241865Y-112350114D01*
X117289484Y-112445352D01*
X117337103Y-112492971D01*
X117432341Y-112540590D01*
X117813294Y-112540590D01*
X116908532Y-112016780D02*
X116289484Y-112016780D01*
X116622818Y-112397733D01*
X116479960Y-112397733D01*
X116384722Y-112445352D01*
X116337103Y-112492971D01*
X116289484Y-112588209D01*
X116289484Y-112826304D01*
X116337103Y-112921542D01*
X116384722Y-112969161D01*
X116479960Y-113016780D01*
X116765675Y-113016780D01*
X116860913Y-112969161D01*
X116908532Y-112921542D01*
X129094366Y-66702304D02*
X129094366Y-65902304D01*
X129094366Y-66664209D02*
X129170557Y-66702304D01*
X129322938Y-66702304D01*
X129399128Y-66664209D01*
X129437223Y-66626114D01*
X129475319Y-66549923D01*
X129475319Y-66321352D01*
X129437223Y-66245161D01*
X129399128Y-66207066D01*
X129322938Y-66168971D01*
X129170557Y-66168971D01*
X129094366Y-66207066D01*
X128408652Y-66664209D02*
X128484842Y-66702304D01*
X128637223Y-66702304D01*
X128713414Y-66664209D01*
X128751509Y-66588019D01*
X128751509Y-66283257D01*
X128713414Y-66207066D01*
X128637223Y-66168971D01*
X128484842Y-66168971D01*
X128408652Y-66207066D01*
X128370557Y-66283257D01*
X128370557Y-66359447D01*
X128751509Y-66435638D01*
X128065795Y-66664209D02*
X127989604Y-66702304D01*
X127837223Y-66702304D01*
X127761033Y-66664209D01*
X127722938Y-66588019D01*
X127722938Y-66549923D01*
X127761033Y-66473733D01*
X127837223Y-66435638D01*
X127951509Y-66435638D01*
X128027700Y-66397542D01*
X128065795Y-66321352D01*
X128065795Y-66283257D01*
X128027700Y-66207066D01*
X127951509Y-66168971D01*
X127837223Y-66168971D01*
X127761033Y-66207066D01*
X127380080Y-66702304D02*
X127380080Y-66168971D01*
X127380080Y-65902304D02*
X127418176Y-65940400D01*
X127380080Y-65978495D01*
X127341985Y-65940400D01*
X127380080Y-65902304D01*
X127380080Y-65978495D01*
X126656271Y-66168971D02*
X126656271Y-66816590D01*
X126694366Y-66892780D01*
X126732461Y-66930876D01*
X126808652Y-66968971D01*
X126922938Y-66968971D01*
X126999128Y-66930876D01*
X126656271Y-66664209D02*
X126732461Y-66702304D01*
X126884842Y-66702304D01*
X126961033Y-66664209D01*
X126999128Y-66626114D01*
X127037223Y-66549923D01*
X127037223Y-66321352D01*
X126999128Y-66245161D01*
X126961033Y-66207066D01*
X126884842Y-66168971D01*
X126732461Y-66168971D01*
X126656271Y-66207066D01*
X126275319Y-66168971D02*
X126275319Y-66702304D01*
X126275319Y-66245161D02*
X126237223Y-66207066D01*
X126161033Y-66168971D01*
X126046747Y-66168971D01*
X125970557Y-66207066D01*
X125932461Y-66283257D01*
X125932461Y-66702304D01*
X125246747Y-66664209D02*
X125322938Y-66702304D01*
X125475319Y-66702304D01*
X125551509Y-66664209D01*
X125589604Y-66588019D01*
X125589604Y-66283257D01*
X125551509Y-66207066D01*
X125475319Y-66168971D01*
X125322938Y-66168971D01*
X125246747Y-66207066D01*
X125208652Y-66283257D01*
X125208652Y-66359447D01*
X125589604Y-66435638D01*
X124522938Y-66702304D02*
X124522938Y-65902304D01*
X124522938Y-66664209D02*
X124599128Y-66702304D01*
X124751509Y-66702304D01*
X124827700Y-66664209D01*
X124865795Y-66626114D01*
X124903890Y-66549923D01*
X124903890Y-66321352D01*
X124865795Y-66245161D01*
X124827700Y-66207066D01*
X124751509Y-66168971D01*
X124599128Y-66168971D01*
X124522938Y-66207066D01*
X123532461Y-66702304D02*
X123532461Y-65902304D01*
X123532461Y-66207066D02*
X123456271Y-66168971D01*
X123303890Y-66168971D01*
X123227700Y-66207066D01*
X123189604Y-66245161D01*
X123151509Y-66321352D01*
X123151509Y-66549923D01*
X123189604Y-66626114D01*
X123227700Y-66664209D01*
X123303890Y-66702304D01*
X123456271Y-66702304D01*
X123532461Y-66664209D01*
X122884842Y-66168971D02*
X122694366Y-66702304D01*
X122503890Y-66168971D02*
X122694366Y-66702304D01*
X122770557Y-66892780D01*
X122808652Y-66930876D01*
X122884842Y-66968971D01*
X128903890Y-68066495D02*
X128980080Y-68028400D01*
X129056271Y-67952209D01*
X129170557Y-67837923D01*
X129246747Y-67799828D01*
X129322938Y-67799828D01*
X129284842Y-67990304D02*
X129361033Y-67952209D01*
X129437223Y-67876019D01*
X129475319Y-67723638D01*
X129475319Y-67456971D01*
X129437223Y-67304590D01*
X129361033Y-67228400D01*
X129284842Y-67190304D01*
X129132461Y-67190304D01*
X129056271Y-67228400D01*
X128980080Y-67304590D01*
X128941985Y-67456971D01*
X128941985Y-67723638D01*
X128980080Y-67876019D01*
X129056271Y-67952209D01*
X129132461Y-67990304D01*
X129284842Y-67990304D01*
X128256271Y-67456971D02*
X128256271Y-67990304D01*
X128599128Y-67456971D02*
X128599128Y-67876019D01*
X128561033Y-67952209D01*
X128484842Y-67990304D01*
X128370557Y-67990304D01*
X128294366Y-67952209D01*
X128256271Y-67914114D01*
X127570557Y-67952209D02*
X127646747Y-67990304D01*
X127799128Y-67990304D01*
X127875319Y-67952209D01*
X127913414Y-67876019D01*
X127913414Y-67571257D01*
X127875319Y-67495066D01*
X127799128Y-67456971D01*
X127646747Y-67456971D01*
X127570557Y-67495066D01*
X127532461Y-67571257D01*
X127532461Y-67647447D01*
X127913414Y-67723638D01*
X127189604Y-67456971D02*
X127189604Y-67990304D01*
X127189604Y-67533161D02*
X127151509Y-67495066D01*
X127075319Y-67456971D01*
X126961033Y-67456971D01*
X126884842Y-67495066D01*
X126846747Y-67571257D01*
X126846747Y-67990304D01*
X126580080Y-67456971D02*
X126275319Y-67456971D01*
X126465795Y-67190304D02*
X126465795Y-67876019D01*
X126427700Y-67952209D01*
X126351509Y-67990304D01*
X126275319Y-67990304D01*
X126008652Y-67990304D02*
X126008652Y-67456971D01*
X126008652Y-67190304D02*
X126046747Y-67228400D01*
X126008652Y-67266495D01*
X125970557Y-67228400D01*
X126008652Y-67190304D01*
X126008652Y-67266495D01*
X125627700Y-67456971D02*
X125627700Y-67990304D01*
X125627700Y-67533161D02*
X125589604Y-67495066D01*
X125513414Y-67456971D01*
X125399128Y-67456971D01*
X125322938Y-67495066D01*
X125284842Y-67571257D01*
X125284842Y-67990304D01*
X123913414Y-67990304D02*
X124294366Y-67990304D01*
X124294366Y-67190304D01*
X123341985Y-67952209D02*
X123418176Y-67990304D01*
X123570557Y-67990304D01*
X123646747Y-67952209D01*
X123684842Y-67876019D01*
X123684842Y-67571257D01*
X123646747Y-67495066D01*
X123570557Y-67456971D01*
X123418176Y-67456971D01*
X123341985Y-67495066D01*
X123303890Y-67571257D01*
X123303890Y-67647447D01*
X123684842Y-67723638D01*
X122961033Y-67990304D02*
X122961033Y-67190304D01*
X122961033Y-67495066D02*
X122884842Y-67456971D01*
X122732461Y-67456971D01*
X122656271Y-67495066D01*
X122618176Y-67533161D01*
X122580080Y-67609352D01*
X122580080Y-67837923D01*
X122618176Y-67914114D01*
X122656271Y-67952209D01*
X122732461Y-67990304D01*
X122884842Y-67990304D01*
X122961033Y-67952209D01*
X121894366Y-67990304D02*
X121894366Y-67571257D01*
X121932461Y-67495066D01*
X122008652Y-67456971D01*
X122161033Y-67456971D01*
X122237223Y-67495066D01*
X121894366Y-67952209D02*
X121970557Y-67990304D01*
X122161033Y-67990304D01*
X122237223Y-67952209D01*
X122275319Y-67876019D01*
X122275319Y-67799828D01*
X122237223Y-67723638D01*
X122161033Y-67685542D01*
X121970557Y-67685542D01*
X121894366Y-67647447D01*
X121551509Y-67952209D02*
X121475319Y-67990304D01*
X121322938Y-67990304D01*
X121246747Y-67952209D01*
X121208652Y-67876019D01*
X121208652Y-67837923D01*
X121246747Y-67761733D01*
X121322938Y-67723638D01*
X121437223Y-67723638D01*
X121513414Y-67685542D01*
X121551509Y-67609352D01*
X121551509Y-67571257D01*
X121513414Y-67495066D01*
X121437223Y-67456971D01*
X121322938Y-67456971D01*
X121246747Y-67495066D01*
X120980080Y-67456971D02*
X120675319Y-67456971D01*
X120865795Y-67190304D02*
X120865795Y-67876019D01*
X120827700Y-67952209D01*
X120751509Y-67990304D01*
X120675319Y-67990304D01*
X120065795Y-67990304D02*
X120065795Y-67571257D01*
X120103890Y-67495066D01*
X120180080Y-67456971D01*
X120332461Y-67456971D01*
X120408652Y-67495066D01*
X120065795Y-67952209D02*
X120141985Y-67990304D01*
X120332461Y-67990304D01*
X120408652Y-67952209D01*
X120446747Y-67876019D01*
X120446747Y-67799828D01*
X120408652Y-67723638D01*
X120332461Y-67685542D01*
X120141985Y-67685542D01*
X120065795Y-67647447D01*
X119684842Y-67990304D02*
X119684842Y-67456971D01*
X119684842Y-67609352D02*
X119646747Y-67533161D01*
X119608652Y-67495066D01*
X119532461Y-67456971D01*
X119456271Y-67456971D01*
X118846747Y-67990304D02*
X118846747Y-67190304D01*
X118846747Y-67952209D02*
X118922938Y-67990304D01*
X119075319Y-67990304D01*
X119151509Y-67952209D01*
X119189604Y-67914114D01*
X119227700Y-67837923D01*
X119227700Y-67609352D01*
X119189604Y-67533161D01*
X119151509Y-67495066D01*
X119075319Y-67456971D01*
X118922938Y-67456971D01*
X118846747Y-67495066D01*
X122379961Y-142421542D02*
X122427580Y-142469161D01*
X122570438Y-142516780D01*
X122665676Y-142516780D01*
X122808533Y-142469161D01*
X122903771Y-142373923D01*
X122951390Y-142278685D01*
X122999009Y-142088209D01*
X122999009Y-141945352D01*
X122951390Y-141754876D01*
X122903771Y-141659638D01*
X122808533Y-141564400D01*
X122665676Y-141516780D01*
X122570438Y-141516780D01*
X122427580Y-141564400D01*
X122379961Y-141612019D01*
X121808533Y-142516780D02*
X121903771Y-142469161D01*
X121951390Y-142421542D01*
X121999009Y-142326304D01*
X121999009Y-142040590D01*
X121951390Y-141945352D01*
X121903771Y-141897733D01*
X121808533Y-141850114D01*
X121665676Y-141850114D01*
X121570438Y-141897733D01*
X121522819Y-141945352D01*
X121475200Y-142040590D01*
X121475200Y-142326304D01*
X121522819Y-142421542D01*
X121570438Y-142469161D01*
X121665676Y-142516780D01*
X121808533Y-142516780D01*
X120903771Y-142516780D02*
X120999009Y-142469161D01*
X121046628Y-142373923D01*
X121046628Y-141516780D01*
X124547223Y-119336304D02*
X124547223Y-118802971D01*
X124547223Y-118955352D02*
X124509128Y-118879161D01*
X124471033Y-118841066D01*
X124394842Y-118802971D01*
X124318652Y-118802971D01*
X123747223Y-119298209D02*
X123823414Y-119336304D01*
X123975795Y-119336304D01*
X124051985Y-119298209D01*
X124090080Y-119222019D01*
X124090080Y-118917257D01*
X124051985Y-118841066D01*
X123975795Y-118802971D01*
X123823414Y-118802971D01*
X123747223Y-118841066D01*
X123709128Y-118917257D01*
X123709128Y-118993447D01*
X124090080Y-119069638D01*
X123442461Y-118802971D02*
X123251985Y-119336304D01*
X123061509Y-118802971D01*
X121728176Y-119336304D02*
X122185319Y-119336304D01*
X121956747Y-119336304D02*
X121956747Y-118536304D01*
X122032938Y-118650590D01*
X122109128Y-118726780D01*
X122185319Y-118764876D01*
X121385319Y-119260114D02*
X121347223Y-119298209D01*
X121385319Y-119336304D01*
X121423414Y-119298209D01*
X121385319Y-119260114D01*
X121385319Y-119336304D01*
X120851985Y-118536304D02*
X120775795Y-118536304D01*
X120699604Y-118574400D01*
X120661509Y-118612495D01*
X120623414Y-118688685D01*
X120585319Y-118841066D01*
X120585319Y-119031542D01*
X120623414Y-119183923D01*
X120661509Y-119260114D01*
X120699604Y-119298209D01*
X120775795Y-119336304D01*
X120851985Y-119336304D01*
X120928176Y-119298209D01*
X120966271Y-119260114D01*
X121004366Y-119183923D01*
X121042461Y-119031542D01*
X121042461Y-118841066D01*
X121004366Y-118688685D01*
X120966271Y-118612495D01*
X120928176Y-118574400D01*
X120851985Y-118536304D01*
X127841865Y-116916780D02*
X128175199Y-116440590D01*
X128413294Y-116916780D02*
X128413294Y-115916780D01*
X128032341Y-115916780D01*
X127937103Y-115964400D01*
X127889484Y-116012019D01*
X127841865Y-116107257D01*
X127841865Y-116250114D01*
X127889484Y-116345352D01*
X127937103Y-116392971D01*
X128032341Y-116440590D01*
X128413294Y-116440590D01*
X126984722Y-116250114D02*
X126984722Y-116916780D01*
X127222818Y-115869161D02*
X127460913Y-116583447D01*
X126841865Y-116583447D01*
X117241865Y-115616780D02*
X117575199Y-115140590D01*
X117813294Y-115616780D02*
X117813294Y-114616780D01*
X117432341Y-114616780D01*
X117337103Y-114664400D01*
X117289484Y-114712019D01*
X117241865Y-114807257D01*
X117241865Y-114950114D01*
X117289484Y-115045352D01*
X117337103Y-115092971D01*
X117432341Y-115140590D01*
X117813294Y-115140590D01*
X116289484Y-115616780D02*
X116860913Y-115616780D01*
X116575199Y-115616780D02*
X116575199Y-114616780D01*
X116670437Y-114759638D01*
X116765675Y-114854876D01*
X116860913Y-114902495D01*
X125983176Y-90024209D02*
X125906985Y-90062304D01*
X125754604Y-90062304D01*
X125678414Y-90024209D01*
X125640319Y-89948019D01*
X125640319Y-89909923D01*
X125678414Y-89833733D01*
X125754604Y-89795638D01*
X125868890Y-89795638D01*
X125945080Y-89757542D01*
X125983176Y-89681352D01*
X125983176Y-89643257D01*
X125945080Y-89567066D01*
X125868890Y-89528971D01*
X125754604Y-89528971D01*
X125678414Y-89567066D01*
X125297461Y-90062304D02*
X125297461Y-89528971D01*
X125297461Y-89262304D02*
X125335557Y-89300400D01*
X125297461Y-89338495D01*
X125259366Y-89300400D01*
X125297461Y-89262304D01*
X125297461Y-89338495D01*
X124916509Y-89528971D02*
X124916509Y-90062304D01*
X124916509Y-89605161D02*
X124878414Y-89567066D01*
X124802223Y-89528971D01*
X124687938Y-89528971D01*
X124611747Y-89567066D01*
X124573652Y-89643257D01*
X124573652Y-90062304D01*
X123849842Y-89528971D02*
X123849842Y-90176590D01*
X123887938Y-90252780D01*
X123926033Y-90290876D01*
X124002223Y-90328971D01*
X124116509Y-90328971D01*
X124192700Y-90290876D01*
X123849842Y-90024209D02*
X123926033Y-90062304D01*
X124078414Y-90062304D01*
X124154604Y-90024209D01*
X124192700Y-89986114D01*
X124230795Y-89909923D01*
X124230795Y-89681352D01*
X124192700Y-89605161D01*
X124154604Y-89567066D01*
X124078414Y-89528971D01*
X123926033Y-89528971D01*
X123849842Y-89567066D01*
X123354604Y-90062304D02*
X123430795Y-90024209D01*
X123468890Y-89948019D01*
X123468890Y-89262304D01*
X122745080Y-90024209D02*
X122821271Y-90062304D01*
X122973652Y-90062304D01*
X123049842Y-90024209D01*
X123087938Y-89948019D01*
X123087938Y-89643257D01*
X123049842Y-89567066D01*
X122973652Y-89528971D01*
X122821271Y-89528971D01*
X122745080Y-89567066D01*
X122706985Y-89643257D01*
X122706985Y-89719447D01*
X123087938Y-89795638D01*
X121411747Y-90024209D02*
X121487938Y-90062304D01*
X121640319Y-90062304D01*
X121716509Y-90024209D01*
X121754604Y-89986114D01*
X121792700Y-89909923D01*
X121792700Y-89681352D01*
X121754604Y-89605161D01*
X121716509Y-89567066D01*
X121640319Y-89528971D01*
X121487938Y-89528971D01*
X121411747Y-89567066D01*
X120954604Y-90062304D02*
X121030795Y-90024209D01*
X121068890Y-89986114D01*
X121106985Y-89909923D01*
X121106985Y-89681352D01*
X121068890Y-89605161D01*
X121030795Y-89567066D01*
X120954604Y-89528971D01*
X120840319Y-89528971D01*
X120764128Y-89567066D01*
X120726033Y-89605161D01*
X120687938Y-89681352D01*
X120687938Y-89909923D01*
X120726033Y-89986114D01*
X120764128Y-90024209D01*
X120840319Y-90062304D01*
X120954604Y-90062304D01*
X120230795Y-90062304D02*
X120306985Y-90024209D01*
X120345080Y-89948019D01*
X120345080Y-89262304D01*
X119583176Y-89528971D02*
X119583176Y-90062304D01*
X119926033Y-89528971D02*
X119926033Y-89948019D01*
X119887938Y-90024209D01*
X119811747Y-90062304D01*
X119697461Y-90062304D01*
X119621271Y-90024209D01*
X119583176Y-89986114D01*
X119202223Y-90062304D02*
X119202223Y-89528971D01*
X119202223Y-89605161D02*
X119164128Y-89567066D01*
X119087938Y-89528971D01*
X118973652Y-89528971D01*
X118897461Y-89567066D01*
X118859366Y-89643257D01*
X118859366Y-90062304D01*
X118859366Y-89643257D02*
X118821271Y-89567066D01*
X118745080Y-89528971D01*
X118630795Y-89528971D01*
X118554604Y-89567066D01*
X118516509Y-89643257D01*
X118516509Y-90062304D01*
X118135557Y-89528971D02*
X118135557Y-90062304D01*
X118135557Y-89605161D02*
X118097461Y-89567066D01*
X118021271Y-89528971D01*
X117906985Y-89528971D01*
X117830795Y-89567066D01*
X117792700Y-89643257D01*
X117792700Y-90062304D01*
X116802223Y-90062304D02*
X116802223Y-89262304D01*
X116497461Y-89262304D01*
X116421271Y-89300400D01*
X116383176Y-89338495D01*
X116345080Y-89414685D01*
X116345080Y-89528971D01*
X116383176Y-89605161D01*
X116421271Y-89643257D01*
X116497461Y-89681352D01*
X116802223Y-89681352D01*
X115545080Y-89986114D02*
X115583176Y-90024209D01*
X115697461Y-90062304D01*
X115773652Y-90062304D01*
X115887938Y-90024209D01*
X115964128Y-89948019D01*
X116002223Y-89871828D01*
X116040319Y-89719447D01*
X116040319Y-89605161D01*
X116002223Y-89452780D01*
X115964128Y-89376590D01*
X115887938Y-89300400D01*
X115773652Y-89262304D01*
X115697461Y-89262304D01*
X115583176Y-89300400D01*
X115545080Y-89338495D01*
X114935557Y-89643257D02*
X114821271Y-89681352D01*
X114783176Y-89719447D01*
X114745080Y-89795638D01*
X114745080Y-89909923D01*
X114783176Y-89986114D01*
X114821271Y-90024209D01*
X114897461Y-90062304D01*
X115202223Y-90062304D01*
X115202223Y-89262304D01*
X114935557Y-89262304D01*
X114859366Y-89300400D01*
X114821271Y-89338495D01*
X114783176Y-89414685D01*
X114783176Y-89490876D01*
X114821271Y-89567066D01*
X114859366Y-89605161D01*
X114935557Y-89643257D01*
X115202223Y-89643257D01*
X121145080Y-90816971D02*
X120840319Y-90816971D01*
X121030795Y-91350304D02*
X121030795Y-90664590D01*
X120992700Y-90588400D01*
X120916509Y-90550304D01*
X120840319Y-90550304D01*
X120459366Y-91350304D02*
X120535557Y-91312209D01*
X120573652Y-91274114D01*
X120611747Y-91197923D01*
X120611747Y-90969352D01*
X120573652Y-90893161D01*
X120535557Y-90855066D01*
X120459366Y-90816971D01*
X120345080Y-90816971D01*
X120268890Y-90855066D01*
X120230795Y-90893161D01*
X120192700Y-90969352D01*
X120192700Y-91197923D01*
X120230795Y-91274114D01*
X120268890Y-91312209D01*
X120345080Y-91350304D01*
X120459366Y-91350304D01*
X119849842Y-91350304D02*
X119849842Y-90816971D01*
X119849842Y-90969352D02*
X119811747Y-90893161D01*
X119773652Y-90855066D01*
X119697461Y-90816971D01*
X119621271Y-90816971D01*
X118745080Y-91350304D02*
X118745080Y-90550304D01*
X118554604Y-90550304D01*
X118440319Y-90588400D01*
X118364128Y-90664590D01*
X118326033Y-90740780D01*
X118287938Y-90893161D01*
X118287938Y-91007447D01*
X118326033Y-91159828D01*
X118364128Y-91236019D01*
X118440319Y-91312209D01*
X118554604Y-91350304D01*
X118745080Y-91350304D01*
X117602223Y-91350304D02*
X117602223Y-90931257D01*
X117640319Y-90855066D01*
X117716509Y-90816971D01*
X117868890Y-90816971D01*
X117945080Y-90855066D01*
X117602223Y-91312209D02*
X117678414Y-91350304D01*
X117868890Y-91350304D01*
X117945080Y-91312209D01*
X117983176Y-91236019D01*
X117983176Y-91159828D01*
X117945080Y-91083638D01*
X117868890Y-91045542D01*
X117678414Y-91045542D01*
X117602223Y-91007447D01*
X116878414Y-91312209D02*
X116954604Y-91350304D01*
X117106985Y-91350304D01*
X117183176Y-91312209D01*
X117221271Y-91274114D01*
X117259366Y-91197923D01*
X117259366Y-90969352D01*
X117221271Y-90893161D01*
X117183176Y-90855066D01*
X117106985Y-90816971D01*
X116954604Y-90816971D01*
X116878414Y-90855066D01*
X116649842Y-90816971D02*
X116345080Y-90816971D01*
X116535557Y-90550304D02*
X116535557Y-91236019D01*
X116497461Y-91312209D01*
X116421271Y-91350304D01*
X116345080Y-91350304D01*
X116154604Y-90816971D02*
X115964128Y-91350304D01*
X115773652Y-90816971D02*
X115964128Y-91350304D01*
X116040319Y-91540780D01*
X116078414Y-91578876D01*
X116154604Y-91616971D01*
X115354604Y-91350304D02*
X115430795Y-91312209D01*
X115468890Y-91236019D01*
X115468890Y-90550304D01*
X115087938Y-91312209D02*
X115011747Y-91350304D01*
X114859366Y-91350304D01*
X114783176Y-91312209D01*
X114745080Y-91236019D01*
X114745080Y-91197923D01*
X114783176Y-91121733D01*
X114859366Y-91083638D01*
X114973652Y-91083638D01*
X115049842Y-91045542D01*
X115087938Y-90969352D01*
X115087938Y-90931257D01*
X115049842Y-90855066D01*
X114973652Y-90816971D01*
X114859366Y-90816971D01*
X114783176Y-90855066D01*
X127841865Y-119516780D02*
X128175199Y-119040590D01*
X128413294Y-119516780D02*
X128413294Y-118516780D01*
X128032341Y-118516780D01*
X127937103Y-118564400D01*
X127889484Y-118612019D01*
X127841865Y-118707257D01*
X127841865Y-118850114D01*
X127889484Y-118945352D01*
X127937103Y-118992971D01*
X128032341Y-119040590D01*
X128413294Y-119040590D01*
X126984722Y-118516780D02*
X127175199Y-118516780D01*
X127270437Y-118564400D01*
X127318056Y-118612019D01*
X127413294Y-118754876D01*
X127460913Y-118945352D01*
X127460913Y-119326304D01*
X127413294Y-119421542D01*
X127365675Y-119469161D01*
X127270437Y-119516780D01*
X127079960Y-119516780D01*
X126984722Y-119469161D01*
X126937103Y-119421542D01*
X126889484Y-119326304D01*
X126889484Y-119088209D01*
X126937103Y-118992971D01*
X126984722Y-118945352D01*
X127079960Y-118897733D01*
X127270437Y-118897733D01*
X127365675Y-118945352D01*
X127413294Y-118992971D01*
X127460913Y-119088209D01*
X117927582Y-137764400D02*
X118022820Y-137716780D01*
X118165677Y-137716780D01*
X118308534Y-137764400D01*
X118403772Y-137859638D01*
X118451391Y-137954876D01*
X118499010Y-138145352D01*
X118499010Y-138288209D01*
X118451391Y-138478685D01*
X118403772Y-138573923D01*
X118308534Y-138669161D01*
X118165677Y-138716780D01*
X118070439Y-138716780D01*
X117927582Y-138669161D01*
X117879963Y-138621542D01*
X117879963Y-138288209D01*
X118070439Y-138288209D01*
X117451391Y-138050114D02*
X117451391Y-138716780D01*
X117451391Y-138145352D02*
X117403772Y-138097733D01*
X117308534Y-138050114D01*
X117165677Y-138050114D01*
X117070439Y-138097733D01*
X117022820Y-138192971D01*
X117022820Y-138716780D01*
X116118058Y-138716780D02*
X116118058Y-137716780D01*
X116118058Y-138669161D02*
X116213296Y-138716780D01*
X116403772Y-138716780D01*
X116499010Y-138669161D01*
X116546629Y-138621542D01*
X116594248Y-138526304D01*
X116594248Y-138240590D01*
X116546629Y-138145352D01*
X116499010Y-138097733D01*
X116403772Y-138050114D01*
X116213296Y-138050114D01*
X116118058Y-138097733D01*
X127841865Y-118216780D02*
X128175199Y-117740590D01*
X128413294Y-118216780D02*
X128413294Y-117216780D01*
X128032341Y-117216780D01*
X127937103Y-117264400D01*
X127889484Y-117312019D01*
X127841865Y-117407257D01*
X127841865Y-117550114D01*
X127889484Y-117645352D01*
X127937103Y-117692971D01*
X128032341Y-117740590D01*
X128413294Y-117740590D01*
X126937103Y-117216780D02*
X127413294Y-117216780D01*
X127460913Y-117692971D01*
X127413294Y-117645352D01*
X127318056Y-117597733D01*
X127079960Y-117597733D01*
X126984722Y-117645352D01*
X126937103Y-117692971D01*
X126889484Y-117788209D01*
X126889484Y-118026304D01*
X126937103Y-118121542D01*
X126984722Y-118169161D01*
X127079960Y-118216780D01*
X127318056Y-118216780D01*
X127413294Y-118169161D01*
X127460913Y-118121542D01*
X127841865Y-115616780D02*
X128175199Y-115140590D01*
X128413294Y-115616780D02*
X128413294Y-114616780D01*
X128032341Y-114616780D01*
X127937103Y-114664400D01*
X127889484Y-114712019D01*
X127841865Y-114807257D01*
X127841865Y-114950114D01*
X127889484Y-115045352D01*
X127937103Y-115092971D01*
X128032341Y-115140590D01*
X128413294Y-115140590D01*
X126889484Y-115616780D02*
X127460913Y-115616780D01*
X127175199Y-115616780D02*
X127175199Y-114616780D01*
X127270437Y-114759638D01*
X127365675Y-114854876D01*
X127460913Y-114902495D01*
X128727580Y-133873923D02*
X129727580Y-134207257D01*
X128727580Y-134540590D01*
X129679961Y-135302495D02*
X129727580Y-135207257D01*
X129727580Y-135016780D01*
X129679961Y-134921542D01*
X129632342Y-134873923D01*
X129537104Y-134826304D01*
X129251390Y-134826304D01*
X129156152Y-134873923D01*
X129108533Y-134921542D01*
X129060914Y-135016780D01*
X129060914Y-135207257D01*
X129108533Y-135302495D01*
X129679961Y-136159638D02*
X129727580Y-136064400D01*
X129727580Y-135873923D01*
X129679961Y-135778685D01*
X129632342Y-135731066D01*
X129537104Y-135683447D01*
X129251390Y-135683447D01*
X129156152Y-135731066D01*
X129108533Y-135778685D01*
X129060914Y-135873923D01*
X129060914Y-136064400D01*
X129108533Y-136159638D01*
X118356153Y-136416780D02*
X118022819Y-137416780D01*
X117689486Y-136416780D01*
X116927581Y-137369161D02*
X117022819Y-137416780D01*
X117213296Y-137416780D01*
X117308534Y-137369161D01*
X117356153Y-137321542D01*
X117403772Y-137226304D01*
X117403772Y-136940590D01*
X117356153Y-136845352D01*
X117308534Y-136797733D01*
X117213296Y-136750114D01*
X117022819Y-136750114D01*
X116927581Y-136797733D01*
X116070438Y-137369161D02*
X116165677Y-137416780D01*
X116356153Y-137416780D01*
X116451391Y-137369161D01*
X116499010Y-137321542D01*
X116546629Y-137226304D01*
X116546629Y-136940590D01*
X116499010Y-136845352D01*
X116451391Y-136797733D01*
X116356153Y-136750114D01*
X116165677Y-136750114D01*
X116070438Y-136797733D01*
X127841865Y-114316780D02*
X128175199Y-113840590D01*
X128413294Y-114316780D02*
X128413294Y-113316780D01*
X128032341Y-113316780D01*
X127937103Y-113364400D01*
X127889484Y-113412019D01*
X127841865Y-113507257D01*
X127841865Y-113650114D01*
X127889484Y-113745352D01*
X127937103Y-113792971D01*
X128032341Y-113840590D01*
X128413294Y-113840590D01*
X127460913Y-113412019D02*
X127413294Y-113364400D01*
X127318056Y-113316780D01*
X127079960Y-113316780D01*
X126984722Y-113364400D01*
X126937103Y-113412019D01*
X126889484Y-113507257D01*
X126889484Y-113602495D01*
X126937103Y-113745352D01*
X127508532Y-114316780D01*
X126889484Y-114316780D01*
X129687223Y-97416304D02*
X129687223Y-96616304D01*
X129687223Y-96921066D02*
X129611033Y-96882971D01*
X129458652Y-96882971D01*
X129382461Y-96921066D01*
X129344366Y-96959161D01*
X129306271Y-97035352D01*
X129306271Y-97263923D01*
X129344366Y-97340114D01*
X129382461Y-97378209D01*
X129458652Y-97416304D01*
X129611033Y-97416304D01*
X129687223Y-97378209D01*
X128620557Y-97416304D02*
X128620557Y-96997257D01*
X128658652Y-96921066D01*
X128734842Y-96882971D01*
X128887223Y-96882971D01*
X128963414Y-96921066D01*
X128620557Y-97378209D02*
X128696747Y-97416304D01*
X128887223Y-97416304D01*
X128963414Y-97378209D01*
X129001509Y-97302019D01*
X129001509Y-97225828D01*
X128963414Y-97149638D01*
X128887223Y-97111542D01*
X128696747Y-97111542D01*
X128620557Y-97073447D01*
X128277700Y-97378209D02*
X128201509Y-97416304D01*
X128049128Y-97416304D01*
X127972938Y-97378209D01*
X127934842Y-97302019D01*
X127934842Y-97263923D01*
X127972938Y-97187733D01*
X128049128Y-97149638D01*
X128163414Y-97149638D01*
X128239604Y-97111542D01*
X128277700Y-97035352D01*
X128277700Y-96997257D01*
X128239604Y-96921066D01*
X128163414Y-96882971D01*
X128049128Y-96882971D01*
X127972938Y-96921066D01*
X127706271Y-96882971D02*
X127401509Y-96882971D01*
X127591985Y-96616304D02*
X127591985Y-97302019D01*
X127553890Y-97378209D01*
X127477700Y-97416304D01*
X127401509Y-97416304D01*
X126791985Y-97416304D02*
X126791985Y-96997257D01*
X126830080Y-96921066D01*
X126906271Y-96882971D01*
X127058652Y-96882971D01*
X127134842Y-96921066D01*
X126791985Y-97378209D02*
X126868176Y-97416304D01*
X127058652Y-97416304D01*
X127134842Y-97378209D01*
X127172938Y-97302019D01*
X127172938Y-97225828D01*
X127134842Y-97149638D01*
X127058652Y-97111542D01*
X126868176Y-97111542D01*
X126791985Y-97073447D01*
X126411033Y-97416304D02*
X126411033Y-96882971D01*
X126411033Y-97035352D02*
X126372938Y-96959161D01*
X126334842Y-96921066D01*
X126258652Y-96882971D01*
X126182461Y-96882971D01*
X125572938Y-97416304D02*
X125572938Y-96616304D01*
X125572938Y-97378209D02*
X125649128Y-97416304D01*
X125801509Y-97416304D01*
X125877700Y-97378209D01*
X125915795Y-97340114D01*
X125953890Y-97263923D01*
X125953890Y-97035352D01*
X125915795Y-96959161D01*
X125877700Y-96921066D01*
X125801509Y-96882971D01*
X125649128Y-96882971D01*
X125572938Y-96921066D01*
X125191985Y-97416304D02*
X125191985Y-96616304D01*
X125115795Y-97111542D02*
X124887223Y-97416304D01*
X124887223Y-96882971D02*
X125191985Y-97187733D01*
X124544366Y-97416304D02*
X124544366Y-96616304D01*
X124544366Y-96921066D02*
X124468176Y-96882971D01*
X124315795Y-96882971D01*
X124239604Y-96921066D01*
X124201509Y-96959161D01*
X124163414Y-97035352D01*
X124163414Y-97263923D01*
X124201509Y-97340114D01*
X124239604Y-97378209D01*
X124315795Y-97416304D01*
X124468176Y-97416304D01*
X124544366Y-97378209D01*
X123820557Y-97340114D02*
X123782461Y-97378209D01*
X123820557Y-97416304D01*
X123858652Y-97378209D01*
X123820557Y-97340114D01*
X123820557Y-97416304D01*
X123096747Y-97378209D02*
X123172938Y-97416304D01*
X123325319Y-97416304D01*
X123401509Y-97378209D01*
X123439604Y-97340114D01*
X123477700Y-97263923D01*
X123477700Y-97035352D01*
X123439604Y-96959161D01*
X123401509Y-96921066D01*
X123325319Y-96882971D01*
X123172938Y-96882971D01*
X123096747Y-96921066D01*
X122639604Y-97416304D02*
X122715795Y-97378209D01*
X122753890Y-97340114D01*
X122791985Y-97263923D01*
X122791985Y-97035352D01*
X122753890Y-96959161D01*
X122715795Y-96921066D01*
X122639604Y-96882971D01*
X122525319Y-96882971D01*
X122449128Y-96921066D01*
X122411033Y-96959161D01*
X122372938Y-97035352D01*
X122372938Y-97263923D01*
X122411033Y-97340114D01*
X122449128Y-97378209D01*
X122525319Y-97416304D01*
X122639604Y-97416304D01*
X122030080Y-97416304D02*
X122030080Y-96882971D01*
X122030080Y-96959161D02*
X121991985Y-96921066D01*
X121915795Y-96882971D01*
X121801509Y-96882971D01*
X121725319Y-96921066D01*
X121687223Y-96997257D01*
X121687223Y-97416304D01*
X121687223Y-96997257D02*
X121649128Y-96921066D01*
X121572938Y-96882971D01*
X121458652Y-96882971D01*
X121382461Y-96921066D01*
X121344366Y-96997257D01*
X121344366Y-97416304D01*
X127841865Y-113016780D02*
X128175199Y-112540590D01*
X128413294Y-113016780D02*
X128413294Y-112016780D01*
X128032341Y-112016780D01*
X127937103Y-112064400D01*
X127889484Y-112112019D01*
X127841865Y-112207257D01*
X127841865Y-112350114D01*
X127889484Y-112445352D01*
X127937103Y-112492971D01*
X128032341Y-112540590D01*
X128413294Y-112540590D01*
X127508532Y-112016780D02*
X126889484Y-112016780D01*
X127222818Y-112397733D01*
X127079960Y-112397733D01*
X126984722Y-112445352D01*
X126937103Y-112492971D01*
X126889484Y-112588209D01*
X126889484Y-112826304D01*
X126937103Y-112921542D01*
X126984722Y-112969161D01*
X127079960Y-113016780D01*
X127365675Y-113016780D01*
X127460913Y-112969161D01*
X127508532Y-112921542D01*
X129927580Y-140573924D02*
X128927580Y-140573924D01*
X128927580Y-140812019D01*
X128975200Y-140954876D01*
X129070438Y-141050114D01*
X129165676Y-141097733D01*
X129356152Y-141145352D01*
X129499009Y-141145352D01*
X129689485Y-141097733D01*
X129784723Y-141050114D01*
X129879961Y-140954876D01*
X129927580Y-140812019D01*
X129927580Y-140573924D01*
X129927580Y-141573924D02*
X129260914Y-141573924D01*
X128927580Y-141573924D02*
X128975200Y-141526305D01*
X129022819Y-141573924D01*
X128975200Y-141621543D01*
X128927580Y-141573924D01*
X129022819Y-141573924D01*
X129260914Y-142050114D02*
X129927580Y-142050114D01*
X129356152Y-142050114D02*
X129308533Y-142097733D01*
X129260914Y-142192971D01*
X129260914Y-142335828D01*
X129308533Y-142431066D01*
X129403771Y-142478685D01*
X129927580Y-142478685D01*
X119022819Y-140016780D02*
X119022819Y-139016780D01*
X118784724Y-139016780D01*
X118641867Y-139064400D01*
X118546629Y-139159638D01*
X118499010Y-139254876D01*
X118451391Y-139445352D01*
X118451391Y-139588209D01*
X118499010Y-139778685D01*
X118546629Y-139873923D01*
X118641867Y-139969161D01*
X118784724Y-140016780D01*
X119022819Y-140016780D01*
X117879962Y-140016780D02*
X117975200Y-139969161D01*
X118022819Y-139921542D01*
X118070439Y-139826304D01*
X118070439Y-139540590D01*
X118022819Y-139445352D01*
X117975200Y-139397733D01*
X117879962Y-139350114D01*
X117737105Y-139350114D01*
X117641867Y-139397733D01*
X117594248Y-139445352D01*
X117546629Y-139540590D01*
X117546629Y-139826304D01*
X117594248Y-139921542D01*
X117641867Y-139969161D01*
X117737105Y-140016780D01*
X117879962Y-140016780D01*
X116689486Y-139350114D02*
X116689486Y-140016780D01*
X117118058Y-139350114D02*
X117118058Y-139873923D01*
X117070439Y-139969161D01*
X116975200Y-140016780D01*
X116832343Y-140016780D01*
X116737105Y-139969161D01*
X116689486Y-139921542D01*
X116356153Y-139350114D02*
X115975200Y-139350114D01*
X116213296Y-139016780D02*
X116213296Y-139873923D01*
X116165677Y-139969161D01*
X116070439Y-140016780D01*
X115975200Y-140016780D01*
X117241865Y-116916780D02*
X117575199Y-116440590D01*
X117813294Y-116916780D02*
X117813294Y-115916780D01*
X117432341Y-115916780D01*
X117337103Y-115964400D01*
X117289484Y-116012019D01*
X117241865Y-116107257D01*
X117241865Y-116250114D01*
X117289484Y-116345352D01*
X117337103Y-116392971D01*
X117432341Y-116440590D01*
X117813294Y-116440590D01*
X116384722Y-116250114D02*
X116384722Y-116916780D01*
X116622818Y-115869161D02*
X116860913Y-116583447D01*
X116241865Y-116583447D01*
X116493295Y-55134876D02*
X117293295Y-55134876D01*
X117293295Y-54944400D01*
X117255200Y-54830114D01*
X117179009Y-54753923D01*
X117102819Y-54715828D01*
X116950438Y-54677733D01*
X116836152Y-54677733D01*
X116683771Y-54715828D01*
X116607580Y-54753923D01*
X116531390Y-54830114D01*
X116493295Y-54944400D01*
X116493295Y-55134876D01*
X116493295Y-53915828D02*
X116493295Y-54372971D01*
X116493295Y-54144400D02*
X117293295Y-54144400D01*
X117179009Y-54220590D01*
X117102819Y-54296780D01*
X117064723Y-54372971D01*
X116493295Y-169834876D02*
X117293295Y-169834876D01*
X117293295Y-169644400D01*
X117255200Y-169530114D01*
X117179009Y-169453923D01*
X117102819Y-169415828D01*
X116950438Y-169377733D01*
X116836152Y-169377733D01*
X116683771Y-169415828D01*
X116607580Y-169453923D01*
X116531390Y-169530114D01*
X116493295Y-169644400D01*
X116493295Y-169834876D01*
X117293295Y-168692019D02*
X117293295Y-168844400D01*
X117255200Y-168920590D01*
X117217104Y-168958685D01*
X117102819Y-169034876D01*
X116950438Y-169072971D01*
X116645676Y-169072971D01*
X116569485Y-169034876D01*
X116531390Y-168996780D01*
X116493295Y-168920590D01*
X116493295Y-168768209D01*
X116531390Y-168692019D01*
X116569485Y-168653923D01*
X116645676Y-168615828D01*
X116836152Y-168615828D01*
X116912342Y-168653923D01*
X116950438Y-168692019D01*
X116988533Y-168768209D01*
X116988533Y-168920590D01*
X116950438Y-168996780D01*
X116912342Y-169034876D01*
X116836152Y-169072971D01*
X116493295Y-123444876D02*
X117293295Y-123444876D01*
X117293295Y-123254400D01*
X117255200Y-123140114D01*
X117179009Y-123063923D01*
X117102819Y-123025828D01*
X116950438Y-122987733D01*
X116836152Y-122987733D01*
X116683771Y-123025828D01*
X116607580Y-123063923D01*
X116531390Y-123140114D01*
X116493295Y-123254400D01*
X116493295Y-123444876D01*
X117026628Y-122302019D02*
X116493295Y-122302019D01*
X117331390Y-122492495D02*
X116759961Y-122682971D01*
X116759961Y-122187733D01*
X116493295Y-146564876D02*
X117293295Y-146564876D01*
X117293295Y-146374400D01*
X117255200Y-146260114D01*
X117179009Y-146183923D01*
X117102819Y-146145828D01*
X116950438Y-146107733D01*
X116836152Y-146107733D01*
X116683771Y-146145828D01*
X116607580Y-146183923D01*
X116531390Y-146260114D01*
X116493295Y-146374400D01*
X116493295Y-146564876D01*
X117293295Y-145383923D02*
X117293295Y-145764876D01*
X116912342Y-145802971D01*
X116950438Y-145764876D01*
X116988533Y-145688685D01*
X116988533Y-145498209D01*
X116950438Y-145422019D01*
X116912342Y-145383923D01*
X116836152Y-145345828D01*
X116645676Y-145345828D01*
X116569485Y-145383923D01*
X116531390Y-145422019D01*
X116493295Y-145498209D01*
X116493295Y-145688685D01*
X116531390Y-145764876D01*
X116569485Y-145802971D01*
X116493295Y-101174876D02*
X117293295Y-101174876D01*
X117293295Y-100984400D01*
X117255200Y-100870114D01*
X117179009Y-100793923D01*
X117102819Y-100755828D01*
X116950438Y-100717733D01*
X116836152Y-100717733D01*
X116683771Y-100755828D01*
X116607580Y-100793923D01*
X116531390Y-100870114D01*
X116493295Y-100984400D01*
X116493295Y-101174876D01*
X117293295Y-100451066D02*
X117293295Y-99955828D01*
X116988533Y-100222495D01*
X116988533Y-100108209D01*
X116950438Y-100032019D01*
X116912342Y-99993923D01*
X116836152Y-99955828D01*
X116645676Y-99955828D01*
X116569485Y-99993923D01*
X116531390Y-100032019D01*
X116493295Y-100108209D01*
X116493295Y-100336780D01*
X116531390Y-100412971D01*
X116569485Y-100451066D01*
X116493295Y-77904876D02*
X117293295Y-77904876D01*
X117293295Y-77714400D01*
X117255200Y-77600114D01*
X117179009Y-77523923D01*
X117102819Y-77485828D01*
X116950438Y-77447733D01*
X116836152Y-77447733D01*
X116683771Y-77485828D01*
X116607580Y-77523923D01*
X116531390Y-77600114D01*
X116493295Y-77714400D01*
X116493295Y-77904876D01*
X117217104Y-77142971D02*
X117255200Y-77104876D01*
X117293295Y-77028685D01*
X117293295Y-76838209D01*
X117255200Y-76762019D01*
X117217104Y-76723923D01*
X117140914Y-76685828D01*
X117064723Y-76685828D01*
X116950438Y-76723923D01*
X116493295Y-77181066D01*
X116493295Y-76685828D01*
X125312342Y-137085233D02*
X125359961Y-137037614D01*
X125407580Y-136894757D01*
X125407580Y-136799519D01*
X125359961Y-136656661D01*
X125264723Y-136561423D01*
X125169485Y-136513804D01*
X124979009Y-136466185D01*
X124836152Y-136466185D01*
X124645676Y-136513804D01*
X124550438Y-136561423D01*
X124455200Y-136656661D01*
X124407580Y-136799519D01*
X124407580Y-136894757D01*
X124455200Y-137037614D01*
X124502819Y-137085233D01*
X124502819Y-137466185D02*
X124455200Y-137513804D01*
X124407580Y-137609042D01*
X124407580Y-137847138D01*
X124455200Y-137942376D01*
X124502819Y-137989995D01*
X124598057Y-138037614D01*
X124693295Y-138037614D01*
X124836152Y-137989995D01*
X125407580Y-137418566D01*
X125407580Y-138037614D01*
D11*
X126880200Y-78040400D02*
X126380200Y-78040400D01*
X126380200Y-78040400D02*
X126380200Y-77140400D01*
X126380200Y-77140400D02*
X126880200Y-77140400D01*
X126880200Y-77140400D02*
X126880200Y-78040400D01*
G36*
X126880200Y-78040400D02*
G01*
X126380200Y-78040400D01*
X126380200Y-77140400D01*
X126880200Y-77140400D01*
X126880200Y-78040400D01*
G37*
X126880200Y-78040400D02*
X126380200Y-78040400D01*
X126380200Y-77140400D01*
X126880200Y-77140400D01*
X126880200Y-78040400D01*
X115280200Y-54044400D02*
X115930200Y-54044400D01*
X115280200Y-54044400D02*
X114580200Y-54044400D01*
X114630200Y-54994400D02*
X115880200Y-54994400D01*
X115280200Y-54044400D02*
X114630200Y-54994400D01*
X115880200Y-54994400D02*
X115280200Y-54044400D01*
D10*
X128682700Y-173524400D02*
X128301700Y-173524400D01*
X126523700Y-173524400D02*
X124872700Y-173524400D01*
X117252700Y-179874400D02*
X126142700Y-179874400D01*
X122332700Y-175429400D02*
X120232700Y-175429400D01*
X117252700Y-179493400D02*
X117252700Y-179874400D01*
X128682700Y-177334400D02*
X128682700Y-176953400D01*
X128682700Y-173905400D02*
X128682700Y-173524400D01*
X128682700Y-177334400D02*
G75*
G02*
X126142700Y-179874400I-2540000J0D01*
G01*
X124793968Y-173516903D02*
G75*
G02*
X122332700Y-175429400I-2461268J627503D01*
G01*
X128682700Y-150955400D02*
X128682700Y-150574400D01*
X128682700Y-154384400D02*
X128682700Y-154003400D01*
X117252700Y-156543400D02*
X117252700Y-156924400D01*
X126523700Y-150574400D02*
X124872700Y-150574400D01*
X122332700Y-152479400D02*
X120232700Y-152479400D01*
X117252700Y-156924400D02*
X126142700Y-156924400D01*
X128682700Y-150574400D02*
X128301700Y-150574400D01*
X128682700Y-154384400D02*
G75*
G02*
X126142700Y-156924400I-2540000J0D01*
G01*
X124793968Y-150566903D02*
G75*
G02*
X122332700Y-152479400I-2461268J627503D01*
G01*
D11*
X115880200Y-169694400D02*
X115280200Y-168744400D01*
X114630200Y-169694400D02*
X115880200Y-169694400D01*
X115280200Y-168744400D02*
X115930200Y-168744400D01*
X115280200Y-168744400D02*
X114630200Y-169694400D01*
X115280200Y-168744400D02*
X114580200Y-168744400D01*
X126880200Y-55089400D02*
X126380200Y-55089400D01*
X126380200Y-55089400D02*
X126380200Y-54189400D01*
X126380200Y-54189400D02*
X126880200Y-54189400D01*
X126880200Y-54189400D02*
X126880200Y-55089400D01*
G36*
X126880200Y-55089400D02*
G01*
X126380200Y-55089400D01*
X126380200Y-54189400D01*
X126880200Y-54189400D01*
X126880200Y-55089400D01*
G37*
X126880200Y-55089400D02*
X126380200Y-55089400D01*
X126380200Y-54189400D01*
X126880200Y-54189400D01*
X126880200Y-55089400D01*
X126880200Y-146893400D02*
X126380200Y-146893400D01*
X126380200Y-146893400D02*
X126380200Y-145993400D01*
X126380200Y-145993400D02*
X126880200Y-145993400D01*
X126880200Y-145993400D02*
X126880200Y-146893400D01*
G36*
X126880200Y-146893400D02*
G01*
X126380200Y-146893400D01*
X126380200Y-145993400D01*
X126880200Y-145993400D01*
X126880200Y-146893400D01*
G37*
X126880200Y-146893400D02*
X126380200Y-146893400D01*
X126380200Y-145993400D01*
X126880200Y-145993400D01*
X126880200Y-146893400D01*
X115880200Y-123304400D02*
X115280200Y-122354400D01*
X115280200Y-122354400D02*
X114580200Y-122354400D01*
X115280200Y-122354400D02*
X115930200Y-122354400D01*
X114630200Y-123304400D02*
X115880200Y-123304400D01*
X115280200Y-122354400D02*
X114630200Y-123304400D01*
X115280200Y-145474400D02*
X115930200Y-145474400D01*
X115280200Y-145474400D02*
X114580200Y-145474400D01*
X115280200Y-145474400D02*
X114630200Y-146424400D01*
X114630200Y-146424400D02*
X115880200Y-146424400D01*
X115880200Y-146424400D02*
X115280200Y-145474400D01*
X115280200Y-100084400D02*
X114630200Y-101034400D01*
X115280200Y-100084400D02*
X115930200Y-100084400D01*
X114630200Y-101034400D02*
X115880200Y-101034400D01*
X115880200Y-101034400D02*
X115280200Y-100084400D01*
X115280200Y-100084400D02*
X114580200Y-100084400D01*
D10*
X126523700Y-127624400D02*
X124872700Y-127624400D01*
X122332700Y-129529400D02*
X120232700Y-129529400D01*
X117252700Y-133974400D02*
X126142700Y-133974400D01*
X128682700Y-128005400D02*
X128682700Y-127624400D01*
X117252700Y-133593400D02*
X117252700Y-133974400D01*
X128682700Y-127624400D02*
X128301700Y-127624400D01*
X128682700Y-131434400D02*
X128682700Y-131053400D01*
X124793968Y-127616903D02*
G75*
G02*
X122332700Y-129529400I-2461268J627503D01*
G01*
X128682700Y-131434400D02*
G75*
G02*
X126142700Y-133974400I-2540000J0D01*
G01*
D11*
X126880200Y-123942400D02*
X126380200Y-123942400D01*
X126380200Y-123942400D02*
X126380200Y-123042400D01*
X126380200Y-123042400D02*
X126880200Y-123042400D01*
X126880200Y-123042400D02*
X126880200Y-123942400D01*
G36*
X126880200Y-123942400D02*
G01*
X126380200Y-123942400D01*
X126380200Y-123042400D01*
X126880200Y-123042400D01*
X126880200Y-123942400D01*
G37*
X126880200Y-123942400D02*
X126380200Y-123942400D01*
X126380200Y-123042400D01*
X126880200Y-123042400D01*
X126880200Y-123942400D01*
D10*
X117252700Y-65124400D02*
X126142700Y-65124400D01*
X122332700Y-60679400D02*
X120232700Y-60679400D01*
X128682700Y-62584400D02*
X128682700Y-62203400D01*
X128682700Y-58774400D02*
X128301700Y-58774400D01*
X128682700Y-59155400D02*
X128682700Y-58774400D01*
X126523700Y-58774400D02*
X124872700Y-58774400D01*
X117252700Y-64743400D02*
X117252700Y-65124400D01*
X124793968Y-58766903D02*
G75*
G02*
X122332700Y-60679400I-2461268J627503D01*
G01*
X128682700Y-62584400D02*
G75*
G02*
X126142700Y-65124400I-2540000J0D01*
G01*
X117252700Y-88074400D02*
X126142700Y-88074400D01*
X126523700Y-81724400D02*
X124872700Y-81724400D01*
X128682700Y-81724400D02*
X128301700Y-81724400D01*
X128682700Y-82105400D02*
X128682700Y-81724400D01*
X128682700Y-85534400D02*
X128682700Y-85153400D01*
X117252700Y-87693400D02*
X117252700Y-88074400D01*
X122332700Y-83629400D02*
X120232700Y-83629400D01*
X124793968Y-81716903D02*
G75*
G02*
X122332700Y-83629400I-2461268J627503D01*
G01*
X128682700Y-85534400D02*
G75*
G02*
X126142700Y-88074400I-2540000J0D01*
G01*
X128682700Y-104674400D02*
X128301700Y-104674400D01*
X128682700Y-108484400D02*
X128682700Y-108103400D01*
X117252700Y-111024400D02*
X126142700Y-111024400D01*
X128682700Y-105055400D02*
X128682700Y-104674400D01*
X117252700Y-110643400D02*
X117252700Y-111024400D01*
X126523700Y-104674400D02*
X124872700Y-104674400D01*
X122332700Y-106579400D02*
X120232700Y-106579400D01*
X128682700Y-108484400D02*
G75*
G02*
X126142700Y-111024400I-2540000J0D01*
G01*
X124793968Y-104666903D02*
G75*
G02*
X122332700Y-106579400I-2461268J627503D01*
G01*
D11*
X126880200Y-100991400D02*
X126380200Y-100991400D01*
X126380200Y-100991400D02*
X126380200Y-100091400D01*
X126380200Y-100091400D02*
X126880200Y-100091400D01*
X126880200Y-100091400D02*
X126880200Y-100991400D01*
G36*
X126880200Y-100991400D02*
G01*
X126380200Y-100991400D01*
X126380200Y-100091400D01*
X126880200Y-100091400D01*
X126880200Y-100991400D01*
G37*
X126880200Y-100991400D02*
X126380200Y-100991400D01*
X126380200Y-100091400D01*
X126880200Y-100091400D01*
X126880200Y-100991400D01*
X115880200Y-77764400D02*
X115280200Y-76814400D01*
X115280200Y-76814400D02*
X114630200Y-77764400D01*
X114630200Y-77764400D02*
X115880200Y-77764400D01*
X115280200Y-76814400D02*
X115930200Y-76814400D01*
X115280200Y-76814400D02*
X114580200Y-76814400D01*
X126880200Y-169844400D02*
X126380200Y-169844400D01*
X126380200Y-169844400D02*
X126380200Y-168944400D01*
X126380200Y-168944400D02*
X126880200Y-168944400D01*
X126880200Y-168944400D02*
X126880200Y-169844400D01*
G36*
X126880200Y-169844400D02*
G01*
X126380200Y-169844400D01*
X126380200Y-168944400D01*
X126880200Y-168944400D01*
X126880200Y-169844400D01*
G37*
X126880200Y-169844400D02*
X126380200Y-169844400D01*
X126380200Y-168944400D01*
X126880200Y-168944400D01*
X126880200Y-169844400D01*
D12*
X127685200Y-136649836D02*
X127685200Y-137853964D01*
X125865200Y-136649836D02*
X125865200Y-137853964D01*
M02*
