M48
; DRILL file {KiCad (5.99.0-10337-g2ae264751f)} date Fri Apr 30 16:38:05 2021
; FORMAT={-:-/ absolute / inch / decimal}
; #@! TF.CreationDate,2021-04-30T16:38:05-07:00
; #@! TF.GenerationSoftware,Kicad,Pcbnew,(5.99.0-10337-g2ae264751f)
; #@! TF.FileFunction,MixedPlating,1,2
FMAT,2
INCH
; #@! TA.AperFunction,Plated,PTH,ViaDrill
T1C0.0079
; #@! TA.AperFunction,Plated,PTH,ViaDrill
T2C0.0157
; #@! TA.AperFunction,Plated,PTH,ComponentDrill
T3C0.0197
; #@! TA.AperFunction,Plated,PTH,ComponentDrill
T4C0.0256
; #@! TA.AperFunction,NonPlated,NPTH,ComponentDrill
T5C0.0670
; #@! TA.AperFunction,NonPlated,NPTH,ComponentDrill
T6C0.1181
; #@! TA.AperFunction,NonPlated,NPTH,ComponentDrill
T7C0.1570
%
G90
G05
T1
X4.5345Y-3.0498
X4.5345Y-3.9632
X4.5376Y-2.2789
X4.5376Y-3.175
X4.5376Y-4.0962
X4.5376Y-4.9703
X4.5376Y-5.8758
X4.5376Y-6.801
X4.5384Y-2.1482
X4.5384Y-4.8411
X4.5384Y-5.7545
X4.5423Y-6.6679
X4.6329Y-4.9317
X4.6345Y-2.1419
X4.6368Y-3.0581
X4.6388Y-3.9612
X4.6396Y-6.6684
X4.6429Y-4.8647
X4.6429Y-5.7706
X4.7234Y-5.6443
X4.7589Y-3.8411
X4.7746Y-2.9356
X4.7786Y-5.4002
X4.7825Y-4.4317
X4.7825Y-4.7427
X4.7864Y-6.5577
X4.8091Y-5.4592
X4.8258Y-3.5931
X4.8337Y-5.3569
X4.8534Y-3.8451
X4.873Y-4.4317
X4.877Y-4.4829
X4.877Y-4.5813
X4.877Y-4.6285
X4.8809Y-4.5301
X4.8967Y-3.5714
X4.936Y-5.6088
X4.9894Y-2.1526
X4.9894Y-4.8636
X4.9894Y-6.6714
X4.9907Y-3.9635
X4.9911Y-5.1797
X4.9951Y-3.6147
X4.9967Y-5.7636
X4.9984Y-3.0561
X5.0108Y-4.8884
X5.0384Y-2.4159
X5.0384Y-5.7269
X5.0423Y-3.3057
X5.06Y-3.5675
X5.062Y-5.8155
X5.0896Y-4.1246
X5.1093Y-5.5458
X5.1152Y-4.0695
X5.1191Y-3.9336
X5.1289Y-7.0143
X5.1329Y-6.1167
T2
X4.6313Y-2.1088
X4.6352Y-6.6372
X4.6373Y-3.0266
X4.6381Y-5.7322
X4.6388Y-3.9262
X4.6389Y-4.8308
X4.9165Y-5.4472
X4.9282Y-5.3569
X4.9942Y-6.6393
X4.9949Y-5.7309
X4.9956Y-2.115
X4.9963Y-3.9325
X4.9974Y-3.0246
X4.9974Y-4.8321
T3
X4.8022Y-5.538
T4
X4.5423Y-4.4317
X4.5423Y-4.4817
X4.5423Y-4.5317
X4.5423Y-4.5817
X4.5423Y-4.6317
X4.5423Y-4.6817
X4.5423Y-5.3972
X4.5423Y-5.4472
X4.5423Y-5.4972
X5.0896Y-4.4317
X5.0896Y-4.4817
X5.0896Y-4.5317
X5.0896Y-4.5817
X5.0896Y-4.6317
X5.0896Y-4.6817
X5.0935Y-5.3972
X5.0935Y-5.4472
X5.0935Y-5.4972
T5
X4.6162Y-2.289
X4.6162Y-3.1925
X4.6162Y-4.096
X4.6162Y-4.9996
X4.6162Y-5.9031
X4.6162Y-6.8067
X5.0162Y-2.289
X5.0162Y-3.1925
X5.0162Y-4.096
X5.0162Y-4.9996
X5.0162Y-5.9031
X5.0162Y-6.8067
T6
X4.6662Y-2.389
X4.6662Y-3.2925
X4.6662Y-4.196
X4.6662Y-5.0996
X4.6662Y-6.0031
X4.6662Y-6.9067
X4.7162Y-2.489
X4.7162Y-3.3925
X4.7162Y-4.296
X4.7162Y-5.1996
X4.7162Y-6.1031
X4.7162Y-7.0067
X4.9162Y-2.489
X4.9162Y-3.3925
X4.9162Y-4.296
X4.9162Y-5.1996
X4.9162Y-6.1031
X4.9162Y-7.0067
X4.9662Y-2.389
X4.9662Y-3.2925
X4.9662Y-4.196
X4.9662Y-5.0996
X4.9662Y-6.0031
X4.9662Y-6.9067
T7
X4.8162Y-2.289
X4.8162Y-3.1925
X4.8162Y-4.096
X4.8162Y-4.9996
X4.8162Y-5.9031
X4.8162Y-6.8067
T0
M30
