G04 #@! TF.GenerationSoftware,KiCad,Pcbnew,(5.99.0-10337-g2ae264751f)*
G04 #@! TF.CreationDate,2021-04-30T16:38:17-07:00*
G04 #@! TF.ProjectId,single-col,73696e67-6c65-42d6-936f-6c2e6b696361,rev?*
G04 #@! TF.SameCoordinates,Original*
G04 #@! TF.FileFunction,Profile,NP*
%FSLAX46Y46*%
G04 Gerber Fmt 4.6, Leading zero omitted, Abs format (unit mm)*
G04 Created by KiCad (PCBNEW (5.99.0-10337-g2ae264751f)) date 2021-04-30 16:38:17*
%MOMM*%
%LPD*%
G01*
G04 APERTURE LIST*
G04 #@! TA.AperFunction,Profile*
%ADD10C,0.200000*%
G04 #@! TD*
G04 #@! TA.AperFunction,Profile*
%ADD11C,0.120000*%
G04 #@! TD*
G04 APERTURE END LIST*
D10*
X120375200Y-72114400D02*
X118108533Y-72114399D01*
X126441866Y-72114400D02*
G75*
G02*
X126441866Y-73114400I0J-500000D01*
G01*
X130802201Y-142075400D02*
X130805200Y-157444400D01*
X129391866Y-158939399D02*
G75*
G02*
X129391866Y-157939399I0J500000D01*
G01*
X114525200Y-158939400D02*
X115158534Y-158939400D01*
X130077400Y-96074800D02*
G75*
G02*
X130802201Y-96664400I0J-740302D01*
G01*
X119096083Y-48411787D02*
G75*
G02*
X119959308Y-50260562I1965J-1124997D01*
G01*
X130802200Y-71600401D02*
G75*
G02*
X130075200Y-72114400I-727000J257135D01*
G01*
X124177399Y-96074801D02*
G75*
G02*
X124177399Y-95074799I0J500001D01*
G01*
X114525200Y-157939400D02*
G75*
G02*
X113800200Y-157464400I0J790790D01*
G01*
X123534991Y-182363709D02*
G75*
G03*
X123534991Y-182363709I-400000J0D01*
G01*
X113802200Y-135960000D02*
X113800200Y-157464400D01*
X119959308Y-50260562D02*
G75*
G02*
X119591088Y-50547988I15702J-399692D01*
G01*
X118158534Y-158939399D02*
G75*
G02*
X118158534Y-157939399I0J500000D01*
G01*
X118108533Y-73114399D02*
X120375200Y-73114400D01*
X125263917Y-184609995D02*
X118513926Y-184621777D01*
X125358530Y-50537922D02*
G75*
G02*
X124989309Y-50251783I-383528J-113605D01*
G01*
X120425200Y-157939399D02*
G75*
G02*
X120425200Y-158939399I0J-500000D01*
G01*
X120377400Y-96074800D02*
X118110734Y-96074799D01*
X129441866Y-72114400D02*
X130075200Y-72114400D01*
X113802200Y-51150400D02*
G75*
G02*
X114302200Y-50650400I500000J0D01*
G01*
X119001470Y-182483859D02*
G75*
G02*
X119370691Y-182769998I383528J113605D01*
G01*
X125846074Y-48400004D02*
X119096083Y-48411786D01*
X124175200Y-73114399D02*
G75*
G02*
X124175200Y-72114399I0J500000D01*
G01*
X118510000Y-182371781D02*
X114302200Y-182360000D01*
X118110734Y-96074798D02*
G75*
G02*
X118110734Y-95074800I0J499999D01*
G01*
X130025200Y-158939399D02*
G75*
G02*
X130815200Y-159424400I0J-885901D01*
G01*
X124768912Y-182473792D02*
G75*
G02*
X125259988Y-182360000I493040J-1011205D01*
G01*
X122875007Y-50655891D02*
G75*
G03*
X122875007Y-50655891I-400000J0D01*
G01*
X113802200Y-135960000D02*
X113802200Y-133960000D01*
X120425200Y-158939399D02*
X118158534Y-158939399D01*
X130302200Y-50650400D02*
G75*
G02*
X130802200Y-51150400I0J-500000D01*
G01*
X115158534Y-157939400D02*
X114525200Y-157939400D01*
X130802201Y-96664400D02*
X130813482Y-133960001D01*
X113802201Y-73600401D02*
G75*
G02*
X114475200Y-73114400I672999J-222974D01*
G01*
X113800200Y-159439400D02*
G75*
G02*
X114525200Y-158939400I725000J-275625D01*
G01*
X130802201Y-142075400D02*
X130813482Y-135960001D01*
X114477400Y-96074799D02*
X115110734Y-96074799D01*
X120377402Y-95074800D02*
G75*
G02*
X120377400Y-96074800I-1J-500000D01*
G01*
X124177399Y-95074799D02*
X126444066Y-95074800D01*
X126391866Y-158939400D02*
X124125200Y-158939400D01*
X126444066Y-95074801D02*
G75*
G02*
X126444066Y-96074799I0J-499999D01*
G01*
X113802201Y-96574799D02*
G75*
G02*
X114477400Y-96074799I675199J-205893D01*
G01*
X115108533Y-72114399D02*
X114475200Y-72114399D01*
X130075200Y-73114400D02*
X129441866Y-73114399D01*
X130075200Y-73114400D02*
G75*
G02*
X130802200Y-73600401I0J-786753D01*
G01*
X114477400Y-95074799D02*
G75*
G02*
X113775200Y-94574799I0J743085D01*
G01*
X124125199Y-157939400D02*
X126391866Y-157939400D01*
X129444066Y-95074800D02*
X130077400Y-95074800D01*
X129441866Y-73114398D02*
G75*
G02*
X129441866Y-72114400I0J499999D01*
G01*
X113802200Y-181860000D02*
X113802200Y-179860000D01*
X130813482Y-135960001D02*
X130813482Y-133960001D01*
X114475200Y-72114398D02*
G75*
G02*
X113802200Y-71600401I0J697593D01*
G01*
X119370692Y-182769996D02*
G75*
G02*
X118513926Y-184621777I-858729J-726782D01*
G01*
X130025200Y-157939399D02*
X129391866Y-157939399D01*
X129391866Y-158939399D02*
X130025200Y-158939399D01*
X130802200Y-88975400D02*
X130775200Y-94564400D01*
X113802200Y-51150400D02*
X113802200Y-71600401D01*
X126391866Y-157939400D02*
G75*
G02*
X126391866Y-158939400I0J-500000D01*
G01*
X126444066Y-96074799D02*
X124177400Y-96074800D01*
X118110734Y-95074800D02*
X120377401Y-95074800D01*
X115108533Y-72114398D02*
G75*
G02*
X115108533Y-73114400I0J-500001D01*
G01*
X130802200Y-71600401D02*
X130802200Y-51150400D01*
X124989308Y-50251785D02*
G75*
G02*
X125846074Y-48400004I858729J726782D01*
G01*
X115110734Y-95074800D02*
X114477400Y-95074799D01*
X115110734Y-95074800D02*
G75*
G02*
X115110734Y-96074800I0J-500000D01*
G01*
X126441866Y-72114400D02*
X124175200Y-72114399D01*
X119591088Y-50547989D02*
G75*
G02*
X119100012Y-50661781I-493040J1011205D01*
G01*
X124125004Y-50653709D02*
G75*
G03*
X124125004Y-50653709I-400000J0D01*
G01*
X129444066Y-96074800D02*
G75*
G02*
X129444066Y-95074800I0J500000D01*
G01*
X130802200Y-88975400D02*
X130802200Y-73600401D01*
X113802200Y-119125401D02*
X113802201Y-111925401D01*
X125850000Y-50650000D02*
X130302200Y-50650400D01*
X113802201Y-111925401D02*
X113802201Y-96574799D01*
X114302200Y-182360000D02*
G75*
G02*
X113802200Y-181860000I0J500000D01*
G01*
X114302200Y-50650400D02*
X119100012Y-50661781D01*
X118108533Y-73114399D02*
G75*
G02*
X118108533Y-72114399I0J500000D01*
G01*
X114475200Y-73114400D02*
X115108533Y-73114400D01*
X130813482Y-181860001D02*
G75*
G02*
X130313482Y-182360001I-500000J0D01*
G01*
X121034996Y-182368072D02*
G75*
G03*
X121034996Y-182368072I-400000J0D01*
G01*
X130077400Y-96074800D02*
X129444066Y-96074799D01*
X113802200Y-73600401D02*
X113775200Y-94574799D01*
X124175200Y-73114400D02*
X126441866Y-73114400D01*
X120375200Y-72114400D02*
G75*
G02*
X120375200Y-73114400I0J-500000D01*
G01*
X130313482Y-182360001D02*
X125259988Y-182360000D01*
X113802200Y-133960000D02*
X113802200Y-119125401D01*
X124125199Y-158939400D02*
G75*
G02*
X124125199Y-157939400I0J500000D01*
G01*
X130775201Y-94564400D02*
G75*
G02*
X130077400Y-95074800I-697801J221804D01*
G01*
X124400692Y-182761219D02*
G75*
G02*
X124768912Y-182473793I-15702J399692D01*
G01*
X113802200Y-179860000D02*
X113800200Y-159439400D01*
X121625009Y-50658072D02*
G75*
G03*
X121625009Y-50658072I-400000J0D01*
G01*
X122284993Y-182365890D02*
G75*
G03*
X122284993Y-182365890I-400000J0D01*
G01*
X115158534Y-157939400D02*
G75*
G02*
X115158534Y-158939400I0J-500000D01*
G01*
X118158534Y-157939399D02*
X120425200Y-157939399D01*
X130813482Y-181860001D02*
X130815200Y-159424400D01*
X118510000Y-182371781D02*
G75*
G02*
X119001470Y-182483859I1963J-1124997D01*
G01*
X130805200Y-157444400D02*
G75*
G02*
X130025200Y-157939399I-780000J367048D01*
G01*
X125263917Y-184609994D02*
G75*
G02*
X124400692Y-182761219I-1965J1124997D01*
G01*
X125850000Y-50650000D02*
G75*
G02*
X125358530Y-50537922I-1963J1124997D01*
G01*
D11*
X124032700Y-170089400D02*
X120632700Y-170089400D01*
X120632700Y-170089400D02*
X120632700Y-167089400D01*
X120632700Y-167089400D02*
X124032700Y-167089400D01*
X124032700Y-167089400D02*
X124032700Y-170089400D01*
X124032700Y-147139400D02*
X120632700Y-147139400D01*
X120632700Y-147139400D02*
X120632700Y-144139400D01*
X120632700Y-144139400D02*
X124032700Y-144139400D01*
X124032700Y-144139400D02*
X124032700Y-147139400D01*
X124032700Y-124189400D02*
X120632700Y-124189400D01*
X120632700Y-124189400D02*
X120632700Y-121189400D01*
X120632700Y-121189400D02*
X124032700Y-121189400D01*
X124032700Y-121189400D02*
X124032700Y-124189400D01*
X124032700Y-55339400D02*
X120632700Y-55339400D01*
X120632700Y-55339400D02*
X120632700Y-52339400D01*
X120632700Y-52339400D02*
X124032700Y-52339400D01*
X124032700Y-52339400D02*
X124032700Y-55339400D01*
X124032700Y-78289400D02*
X120632700Y-78289400D01*
X120632700Y-78289400D02*
X120632700Y-75289400D01*
X120632700Y-75289400D02*
X124032700Y-75289400D01*
X124032700Y-75289400D02*
X124032700Y-78289400D01*
X124032700Y-101239400D02*
X120632700Y-101239400D01*
X120632700Y-101239400D02*
X120632700Y-98239400D01*
X120632700Y-98239400D02*
X124032700Y-98239400D01*
X124032700Y-98239400D02*
X124032700Y-101239400D01*
M02*
