G04 #@! TF.GenerationSoftware,KiCad,Pcbnew,(5.99.0-10337-g2ae264751f)*
G04 #@! TF.CreationDate,2021-04-30T16:38:17-07:00*
G04 #@! TF.ProjectId,single-col,73696e67-6c65-42d6-936f-6c2e6b696361,rev?*
G04 #@! TF.SameCoordinates,Original*
G04 #@! TF.FileFunction,Legend,Top*
G04 #@! TF.FilePolarity,Positive*
%FSLAX46Y46*%
G04 Gerber Fmt 4.6, Leading zero omitted, Abs format (unit mm)*
G04 Created by KiCad (PCBNEW (5.99.0-10337-g2ae264751f)) date 2021-04-30 16:38:17*
%MOMM*%
%LPD*%
G01*
G04 APERTURE LIST*
%ADD10C,0.150000*%
%ADD11C,0.100000*%
%ADD12C,0.120000*%
G04 APERTURE END LIST*
D10*
X127875200Y-147574400D02*
X129825200Y-147574400D01*
X129825200Y-147574400D02*
X129825200Y-144674400D01*
X129825200Y-144674400D02*
X127875200Y-144674400D01*
X127875200Y-144674400D02*
X127875200Y-147574400D01*
X127975200Y-140064400D02*
X128775200Y-138864400D01*
X123775200Y-90814400D02*
X126675200Y-90814400D01*
X126675200Y-90814400D02*
X126675200Y-92764400D01*
X126675200Y-92764400D02*
X123775200Y-92764400D01*
X123775200Y-92764400D02*
X123775200Y-90814400D01*
X128425200Y-103014400D02*
X130375200Y-103014400D01*
X130375200Y-103014400D02*
X130375200Y-100114400D01*
X130375200Y-100114400D02*
X128425200Y-100114400D01*
X128425200Y-100114400D02*
X128425200Y-103014400D01*
X127508533Y-113016780D02*
X127175200Y-112540590D01*
X126937104Y-113016780D02*
X126937104Y-112016780D01*
X127318057Y-112016780D01*
X127413295Y-112064400D01*
X127460914Y-112112019D01*
X127508533Y-112207257D01*
X127508533Y-112350114D01*
X127460914Y-112445352D01*
X127413295Y-112492971D01*
X127318057Y-112540590D01*
X126937104Y-112540590D01*
X127841866Y-112016780D02*
X128460914Y-112016780D01*
X128127580Y-112397733D01*
X128270438Y-112397733D01*
X128365676Y-112445352D01*
X128413295Y-112492971D01*
X128460914Y-112588209D01*
X128460914Y-112826304D01*
X128413295Y-112921542D01*
X128365676Y-112969161D01*
X128270438Y-113016780D01*
X127984723Y-113016780D01*
X127889485Y-112969161D01*
X127841866Y-112921542D01*
X121670437Y-142521542D02*
X121622818Y-142569161D01*
X121479960Y-142616780D01*
X121384722Y-142616780D01*
X121241865Y-142569161D01*
X121146627Y-142473923D01*
X121099008Y-142378685D01*
X121051389Y-142188209D01*
X121051389Y-142045352D01*
X121099008Y-141854876D01*
X121146627Y-141759638D01*
X121241865Y-141664400D01*
X121384722Y-141616780D01*
X121479960Y-141616780D01*
X121622818Y-141664400D01*
X121670437Y-141712019D01*
X122241865Y-142616780D02*
X122146627Y-142569161D01*
X122099008Y-142521542D01*
X122051389Y-142426304D01*
X122051389Y-142140590D01*
X122099008Y-142045352D01*
X122146627Y-141997733D01*
X122241865Y-141950114D01*
X122384722Y-141950114D01*
X122479960Y-141997733D01*
X122527579Y-142045352D01*
X122575199Y-142140590D01*
X122575199Y-142426304D01*
X122527579Y-142521542D01*
X122479960Y-142569161D01*
X122384722Y-142616780D01*
X122241865Y-142616780D01*
X123146627Y-142616780D02*
X123051389Y-142569161D01*
X123003770Y-142473923D01*
X123003770Y-141616780D01*
X127508533Y-116916780D02*
X127175200Y-116440590D01*
X126937104Y-116916780D02*
X126937104Y-115916780D01*
X127318057Y-115916780D01*
X127413295Y-115964400D01*
X127460914Y-116012019D01*
X127508533Y-116107257D01*
X127508533Y-116250114D01*
X127460914Y-116345352D01*
X127413295Y-116392971D01*
X127318057Y-116440590D01*
X126937104Y-116440590D01*
X128365676Y-116250114D02*
X128365676Y-116916780D01*
X128127580Y-115869161D02*
X127889485Y-116583447D01*
X128508533Y-116583447D01*
X116179961Y-136616780D02*
X116513295Y-137616780D01*
X116846628Y-136616780D01*
X117608533Y-137569161D02*
X117513295Y-137616780D01*
X117322818Y-137616780D01*
X117227580Y-137569161D01*
X117179961Y-137521542D01*
X117132342Y-137426304D01*
X117132342Y-137140590D01*
X117179961Y-137045352D01*
X117227580Y-136997733D01*
X117322818Y-136950114D01*
X117513295Y-136950114D01*
X117608533Y-136997733D01*
X118465676Y-137569161D02*
X118370438Y-137616780D01*
X118179961Y-137616780D01*
X118084723Y-137569161D01*
X118037104Y-137521542D01*
X117989485Y-137426304D01*
X117989485Y-137140590D01*
X118037104Y-137045352D01*
X118084723Y-136997733D01*
X118179961Y-136950114D01*
X118370438Y-136950114D01*
X118465676Y-136997733D01*
X116908533Y-116916780D02*
X116575200Y-116440590D01*
X116337104Y-116916780D02*
X116337104Y-115916780D01*
X116718057Y-115916780D01*
X116813295Y-115964400D01*
X116860914Y-116012019D01*
X116908533Y-116107257D01*
X116908533Y-116250114D01*
X116860914Y-116345352D01*
X116813295Y-116392971D01*
X116718057Y-116440590D01*
X116337104Y-116440590D01*
X117765676Y-116250114D02*
X117765676Y-116916780D01*
X117527580Y-115869161D02*
X117289485Y-116583447D01*
X117908533Y-116583447D01*
X114675080Y-89924209D02*
X114751271Y-89962304D01*
X114903652Y-89962304D01*
X114979842Y-89924209D01*
X115017938Y-89848019D01*
X115017938Y-89809923D01*
X114979842Y-89733733D01*
X114903652Y-89695638D01*
X114789366Y-89695638D01*
X114713176Y-89657542D01*
X114675080Y-89581352D01*
X114675080Y-89543257D01*
X114713176Y-89467066D01*
X114789366Y-89428971D01*
X114903652Y-89428971D01*
X114979842Y-89467066D01*
X115360795Y-89962304D02*
X115360795Y-89428971D01*
X115360795Y-89162304D02*
X115322700Y-89200400D01*
X115360795Y-89238495D01*
X115398890Y-89200400D01*
X115360795Y-89162304D01*
X115360795Y-89238495D01*
X115741747Y-89428971D02*
X115741747Y-89962304D01*
X115741747Y-89505161D02*
X115779842Y-89467066D01*
X115856033Y-89428971D01*
X115970319Y-89428971D01*
X116046509Y-89467066D01*
X116084604Y-89543257D01*
X116084604Y-89962304D01*
X116808414Y-89428971D02*
X116808414Y-90076590D01*
X116770319Y-90152780D01*
X116732223Y-90190876D01*
X116656033Y-90228971D01*
X116541747Y-90228971D01*
X116465557Y-90190876D01*
X116808414Y-89924209D02*
X116732223Y-89962304D01*
X116579842Y-89962304D01*
X116503652Y-89924209D01*
X116465557Y-89886114D01*
X116427461Y-89809923D01*
X116427461Y-89581352D01*
X116465557Y-89505161D01*
X116503652Y-89467066D01*
X116579842Y-89428971D01*
X116732223Y-89428971D01*
X116808414Y-89467066D01*
X117303652Y-89962304D02*
X117227461Y-89924209D01*
X117189366Y-89848019D01*
X117189366Y-89162304D01*
X117913176Y-89924209D02*
X117836985Y-89962304D01*
X117684604Y-89962304D01*
X117608414Y-89924209D01*
X117570319Y-89848019D01*
X117570319Y-89543257D01*
X117608414Y-89467066D01*
X117684604Y-89428971D01*
X117836985Y-89428971D01*
X117913176Y-89467066D01*
X117951271Y-89543257D01*
X117951271Y-89619447D01*
X117570319Y-89695638D01*
X119246509Y-89924209D02*
X119170319Y-89962304D01*
X119017938Y-89962304D01*
X118941747Y-89924209D01*
X118903652Y-89886114D01*
X118865557Y-89809923D01*
X118865557Y-89581352D01*
X118903652Y-89505161D01*
X118941747Y-89467066D01*
X119017938Y-89428971D01*
X119170319Y-89428971D01*
X119246509Y-89467066D01*
X119703652Y-89962304D02*
X119627461Y-89924209D01*
X119589366Y-89886114D01*
X119551271Y-89809923D01*
X119551271Y-89581352D01*
X119589366Y-89505161D01*
X119627461Y-89467066D01*
X119703652Y-89428971D01*
X119817938Y-89428971D01*
X119894128Y-89467066D01*
X119932223Y-89505161D01*
X119970319Y-89581352D01*
X119970319Y-89809923D01*
X119932223Y-89886114D01*
X119894128Y-89924209D01*
X119817938Y-89962304D01*
X119703652Y-89962304D01*
X120427461Y-89962304D02*
X120351271Y-89924209D01*
X120313176Y-89848019D01*
X120313176Y-89162304D01*
X121075080Y-89428971D02*
X121075080Y-89962304D01*
X120732223Y-89428971D02*
X120732223Y-89848019D01*
X120770319Y-89924209D01*
X120846509Y-89962304D01*
X120960795Y-89962304D01*
X121036985Y-89924209D01*
X121075080Y-89886114D01*
X121456033Y-89962304D02*
X121456033Y-89428971D01*
X121456033Y-89505161D02*
X121494128Y-89467066D01*
X121570319Y-89428971D01*
X121684604Y-89428971D01*
X121760795Y-89467066D01*
X121798890Y-89543257D01*
X121798890Y-89962304D01*
X121798890Y-89543257D02*
X121836985Y-89467066D01*
X121913176Y-89428971D01*
X122027461Y-89428971D01*
X122103652Y-89467066D01*
X122141747Y-89543257D01*
X122141747Y-89962304D01*
X122522700Y-89428971D02*
X122522700Y-89962304D01*
X122522700Y-89505161D02*
X122560795Y-89467066D01*
X122636985Y-89428971D01*
X122751271Y-89428971D01*
X122827461Y-89467066D01*
X122865557Y-89543257D01*
X122865557Y-89962304D01*
X123856033Y-89962304D02*
X123856033Y-89162304D01*
X124160795Y-89162304D01*
X124236985Y-89200400D01*
X124275080Y-89238495D01*
X124313176Y-89314685D01*
X124313176Y-89428971D01*
X124275080Y-89505161D01*
X124236985Y-89543257D01*
X124160795Y-89581352D01*
X123856033Y-89581352D01*
X125113176Y-89886114D02*
X125075080Y-89924209D01*
X124960795Y-89962304D01*
X124884604Y-89962304D01*
X124770319Y-89924209D01*
X124694128Y-89848019D01*
X124656033Y-89771828D01*
X124617938Y-89619447D01*
X124617938Y-89505161D01*
X124656033Y-89352780D01*
X124694128Y-89276590D01*
X124770319Y-89200400D01*
X124884604Y-89162304D01*
X124960795Y-89162304D01*
X125075080Y-89200400D01*
X125113176Y-89238495D01*
X125722700Y-89543257D02*
X125836985Y-89581352D01*
X125875080Y-89619447D01*
X125913176Y-89695638D01*
X125913176Y-89809923D01*
X125875080Y-89886114D01*
X125836985Y-89924209D01*
X125760795Y-89962304D01*
X125456033Y-89962304D01*
X125456033Y-89162304D01*
X125722700Y-89162304D01*
X125798890Y-89200400D01*
X125836985Y-89238495D01*
X125875080Y-89314685D01*
X125875080Y-89390876D01*
X125836985Y-89467066D01*
X125798890Y-89505161D01*
X125722700Y-89543257D01*
X125456033Y-89543257D01*
X114598890Y-90716971D02*
X114903652Y-90716971D01*
X114713176Y-91250304D02*
X114713176Y-90564590D01*
X114751271Y-90488400D01*
X114827461Y-90450304D01*
X114903652Y-90450304D01*
X115284604Y-91250304D02*
X115208414Y-91212209D01*
X115170319Y-91174114D01*
X115132223Y-91097923D01*
X115132223Y-90869352D01*
X115170319Y-90793161D01*
X115208414Y-90755066D01*
X115284604Y-90716971D01*
X115398890Y-90716971D01*
X115475080Y-90755066D01*
X115513176Y-90793161D01*
X115551271Y-90869352D01*
X115551271Y-91097923D01*
X115513176Y-91174114D01*
X115475080Y-91212209D01*
X115398890Y-91250304D01*
X115284604Y-91250304D01*
X115894128Y-91250304D02*
X115894128Y-90716971D01*
X115894128Y-90869352D02*
X115932223Y-90793161D01*
X115970319Y-90755066D01*
X116046509Y-90716971D01*
X116122700Y-90716971D01*
X116998890Y-91250304D02*
X116998890Y-90450304D01*
X117189366Y-90450304D01*
X117303652Y-90488400D01*
X117379842Y-90564590D01*
X117417938Y-90640780D01*
X117456033Y-90793161D01*
X117456033Y-90907447D01*
X117417938Y-91059828D01*
X117379842Y-91136019D01*
X117303652Y-91212209D01*
X117189366Y-91250304D01*
X116998890Y-91250304D01*
X118141747Y-91250304D02*
X118141747Y-90831257D01*
X118103652Y-90755066D01*
X118027461Y-90716971D01*
X117875080Y-90716971D01*
X117798890Y-90755066D01*
X118141747Y-91212209D02*
X118065557Y-91250304D01*
X117875080Y-91250304D01*
X117798890Y-91212209D01*
X117760795Y-91136019D01*
X117760795Y-91059828D01*
X117798890Y-90983638D01*
X117875080Y-90945542D01*
X118065557Y-90945542D01*
X118141747Y-90907447D01*
X118865557Y-91212209D02*
X118789366Y-91250304D01*
X118636985Y-91250304D01*
X118560795Y-91212209D01*
X118522700Y-91174114D01*
X118484604Y-91097923D01*
X118484604Y-90869352D01*
X118522700Y-90793161D01*
X118560795Y-90755066D01*
X118636985Y-90716971D01*
X118789366Y-90716971D01*
X118865557Y-90755066D01*
X119094128Y-90716971D02*
X119398890Y-90716971D01*
X119208414Y-90450304D02*
X119208414Y-91136019D01*
X119246509Y-91212209D01*
X119322700Y-91250304D01*
X119398890Y-91250304D01*
X119589366Y-90716971D02*
X119779842Y-91250304D01*
X119970319Y-90716971D02*
X119779842Y-91250304D01*
X119703652Y-91440780D01*
X119665557Y-91478876D01*
X119589366Y-91516971D01*
X120389366Y-91250304D02*
X120313176Y-91212209D01*
X120275080Y-91136019D01*
X120275080Y-90450304D01*
X120656033Y-91212209D02*
X120732223Y-91250304D01*
X120884604Y-91250304D01*
X120960795Y-91212209D01*
X120998890Y-91136019D01*
X120998890Y-91097923D01*
X120960795Y-91021733D01*
X120884604Y-90983638D01*
X120770319Y-90983638D01*
X120694128Y-90945542D01*
X120656033Y-90869352D01*
X120656033Y-90831257D01*
X120694128Y-90755066D01*
X120770319Y-90716971D01*
X120884604Y-90716971D01*
X120960795Y-90755066D01*
X127508533Y-118216780D02*
X127175200Y-117740590D01*
X126937104Y-118216780D02*
X126937104Y-117216780D01*
X127318057Y-117216780D01*
X127413295Y-117264400D01*
X127460914Y-117312019D01*
X127508533Y-117407257D01*
X127508533Y-117550114D01*
X127460914Y-117645352D01*
X127413295Y-117692971D01*
X127318057Y-117740590D01*
X126937104Y-117740590D01*
X128413295Y-117216780D02*
X127937104Y-117216780D01*
X127889485Y-117692971D01*
X127937104Y-117645352D01*
X128032342Y-117597733D01*
X128270438Y-117597733D01*
X128365676Y-117645352D01*
X128413295Y-117692971D01*
X128460914Y-117788209D01*
X128460914Y-118026304D01*
X128413295Y-118121542D01*
X128365676Y-118169161D01*
X128270438Y-118216780D01*
X128032342Y-118216780D01*
X127937104Y-118169161D01*
X127889485Y-118121542D01*
X120753176Y-119456304D02*
X120753176Y-118922971D01*
X120753176Y-119075352D02*
X120791271Y-118999161D01*
X120829366Y-118961066D01*
X120905557Y-118922971D01*
X120981747Y-118922971D01*
X121553176Y-119418209D02*
X121476985Y-119456304D01*
X121324604Y-119456304D01*
X121248414Y-119418209D01*
X121210319Y-119342019D01*
X121210319Y-119037257D01*
X121248414Y-118961066D01*
X121324604Y-118922971D01*
X121476985Y-118922971D01*
X121553176Y-118961066D01*
X121591271Y-119037257D01*
X121591271Y-119113447D01*
X121210319Y-119189638D01*
X121857938Y-118922971D02*
X122048414Y-119456304D01*
X122238890Y-118922971D01*
X123572223Y-119456304D02*
X123115080Y-119456304D01*
X123343652Y-119456304D02*
X123343652Y-118656304D01*
X123267461Y-118770590D01*
X123191271Y-118846780D01*
X123115080Y-118884876D01*
X123915080Y-119380114D02*
X123953176Y-119418209D01*
X123915080Y-119456304D01*
X123876985Y-119418209D01*
X123915080Y-119380114D01*
X123915080Y-119456304D01*
X124448414Y-118656304D02*
X124524604Y-118656304D01*
X124600795Y-118694400D01*
X124638890Y-118732495D01*
X124676985Y-118808685D01*
X124715080Y-118961066D01*
X124715080Y-119151542D01*
X124676985Y-119303923D01*
X124638890Y-119380114D01*
X124600795Y-119418209D01*
X124524604Y-119456304D01*
X124448414Y-119456304D01*
X124372223Y-119418209D01*
X124334128Y-119380114D01*
X124296033Y-119303923D01*
X124257938Y-119151542D01*
X124257938Y-118961066D01*
X124296033Y-118808685D01*
X124334128Y-118732495D01*
X124372223Y-118694400D01*
X124448414Y-118656304D01*
X115176033Y-66592304D02*
X115176033Y-65792304D01*
X115176033Y-66554209D02*
X115099842Y-66592304D01*
X114947461Y-66592304D01*
X114871271Y-66554209D01*
X114833176Y-66516114D01*
X114795080Y-66439923D01*
X114795080Y-66211352D01*
X114833176Y-66135161D01*
X114871271Y-66097066D01*
X114947461Y-66058971D01*
X115099842Y-66058971D01*
X115176033Y-66097066D01*
X115861747Y-66554209D02*
X115785557Y-66592304D01*
X115633176Y-66592304D01*
X115556985Y-66554209D01*
X115518890Y-66478019D01*
X115518890Y-66173257D01*
X115556985Y-66097066D01*
X115633176Y-66058971D01*
X115785557Y-66058971D01*
X115861747Y-66097066D01*
X115899842Y-66173257D01*
X115899842Y-66249447D01*
X115518890Y-66325638D01*
X116204604Y-66554209D02*
X116280795Y-66592304D01*
X116433176Y-66592304D01*
X116509366Y-66554209D01*
X116547461Y-66478019D01*
X116547461Y-66439923D01*
X116509366Y-66363733D01*
X116433176Y-66325638D01*
X116318890Y-66325638D01*
X116242700Y-66287542D01*
X116204604Y-66211352D01*
X116204604Y-66173257D01*
X116242700Y-66097066D01*
X116318890Y-66058971D01*
X116433176Y-66058971D01*
X116509366Y-66097066D01*
X116890319Y-66592304D02*
X116890319Y-66058971D01*
X116890319Y-65792304D02*
X116852223Y-65830400D01*
X116890319Y-65868495D01*
X116928414Y-65830400D01*
X116890319Y-65792304D01*
X116890319Y-65868495D01*
X117614128Y-66058971D02*
X117614128Y-66706590D01*
X117576033Y-66782780D01*
X117537938Y-66820876D01*
X117461747Y-66858971D01*
X117347461Y-66858971D01*
X117271271Y-66820876D01*
X117614128Y-66554209D02*
X117537938Y-66592304D01*
X117385557Y-66592304D01*
X117309366Y-66554209D01*
X117271271Y-66516114D01*
X117233176Y-66439923D01*
X117233176Y-66211352D01*
X117271271Y-66135161D01*
X117309366Y-66097066D01*
X117385557Y-66058971D01*
X117537938Y-66058971D01*
X117614128Y-66097066D01*
X117995080Y-66058971D02*
X117995080Y-66592304D01*
X117995080Y-66135161D02*
X118033176Y-66097066D01*
X118109366Y-66058971D01*
X118223652Y-66058971D01*
X118299842Y-66097066D01*
X118337938Y-66173257D01*
X118337938Y-66592304D01*
X119023652Y-66554209D02*
X118947461Y-66592304D01*
X118795080Y-66592304D01*
X118718890Y-66554209D01*
X118680795Y-66478019D01*
X118680795Y-66173257D01*
X118718890Y-66097066D01*
X118795080Y-66058971D01*
X118947461Y-66058971D01*
X119023652Y-66097066D01*
X119061747Y-66173257D01*
X119061747Y-66249447D01*
X118680795Y-66325638D01*
X119747461Y-66592304D02*
X119747461Y-65792304D01*
X119747461Y-66554209D02*
X119671271Y-66592304D01*
X119518890Y-66592304D01*
X119442700Y-66554209D01*
X119404604Y-66516114D01*
X119366509Y-66439923D01*
X119366509Y-66211352D01*
X119404604Y-66135161D01*
X119442700Y-66097066D01*
X119518890Y-66058971D01*
X119671271Y-66058971D01*
X119747461Y-66097066D01*
X120737938Y-66592304D02*
X120737938Y-65792304D01*
X120737938Y-66097066D02*
X120814128Y-66058971D01*
X120966509Y-66058971D01*
X121042700Y-66097066D01*
X121080795Y-66135161D01*
X121118890Y-66211352D01*
X121118890Y-66439923D01*
X121080795Y-66516114D01*
X121042700Y-66554209D01*
X120966509Y-66592304D01*
X120814128Y-66592304D01*
X120737938Y-66554209D01*
X121385557Y-66058971D02*
X121576033Y-66592304D01*
X121766509Y-66058971D02*
X121576033Y-66592304D01*
X121499842Y-66782780D01*
X121461747Y-66820876D01*
X121385557Y-66858971D01*
X115366509Y-67956495D02*
X115290319Y-67918400D01*
X115214128Y-67842209D01*
X115099842Y-67727923D01*
X115023652Y-67689828D01*
X114947461Y-67689828D01*
X114985557Y-67880304D02*
X114909366Y-67842209D01*
X114833176Y-67766019D01*
X114795080Y-67613638D01*
X114795080Y-67346971D01*
X114833176Y-67194590D01*
X114909366Y-67118400D01*
X114985557Y-67080304D01*
X115137938Y-67080304D01*
X115214128Y-67118400D01*
X115290319Y-67194590D01*
X115328414Y-67346971D01*
X115328414Y-67613638D01*
X115290319Y-67766019D01*
X115214128Y-67842209D01*
X115137938Y-67880304D01*
X114985557Y-67880304D01*
X116014128Y-67346971D02*
X116014128Y-67880304D01*
X115671271Y-67346971D02*
X115671271Y-67766019D01*
X115709366Y-67842209D01*
X115785557Y-67880304D01*
X115899842Y-67880304D01*
X115976033Y-67842209D01*
X116014128Y-67804114D01*
X116699842Y-67842209D02*
X116623652Y-67880304D01*
X116471271Y-67880304D01*
X116395080Y-67842209D01*
X116356985Y-67766019D01*
X116356985Y-67461257D01*
X116395080Y-67385066D01*
X116471271Y-67346971D01*
X116623652Y-67346971D01*
X116699842Y-67385066D01*
X116737938Y-67461257D01*
X116737938Y-67537447D01*
X116356985Y-67613638D01*
X117080795Y-67346971D02*
X117080795Y-67880304D01*
X117080795Y-67423161D02*
X117118890Y-67385066D01*
X117195080Y-67346971D01*
X117309366Y-67346971D01*
X117385557Y-67385066D01*
X117423652Y-67461257D01*
X117423652Y-67880304D01*
X117690319Y-67346971D02*
X117995080Y-67346971D01*
X117804604Y-67080304D02*
X117804604Y-67766019D01*
X117842700Y-67842209D01*
X117918890Y-67880304D01*
X117995080Y-67880304D01*
X118261747Y-67880304D02*
X118261747Y-67346971D01*
X118261747Y-67080304D02*
X118223652Y-67118400D01*
X118261747Y-67156495D01*
X118299842Y-67118400D01*
X118261747Y-67080304D01*
X118261747Y-67156495D01*
X118642700Y-67346971D02*
X118642700Y-67880304D01*
X118642700Y-67423161D02*
X118680795Y-67385066D01*
X118756985Y-67346971D01*
X118871271Y-67346971D01*
X118947461Y-67385066D01*
X118985557Y-67461257D01*
X118985557Y-67880304D01*
X120356985Y-67880304D02*
X119976033Y-67880304D01*
X119976033Y-67080304D01*
X120928414Y-67842209D02*
X120852223Y-67880304D01*
X120699842Y-67880304D01*
X120623652Y-67842209D01*
X120585557Y-67766019D01*
X120585557Y-67461257D01*
X120623652Y-67385066D01*
X120699842Y-67346971D01*
X120852223Y-67346971D01*
X120928414Y-67385066D01*
X120966509Y-67461257D01*
X120966509Y-67537447D01*
X120585557Y-67613638D01*
X121309366Y-67880304D02*
X121309366Y-67080304D01*
X121309366Y-67385066D02*
X121385557Y-67346971D01*
X121537938Y-67346971D01*
X121614128Y-67385066D01*
X121652223Y-67423161D01*
X121690319Y-67499352D01*
X121690319Y-67727923D01*
X121652223Y-67804114D01*
X121614128Y-67842209D01*
X121537938Y-67880304D01*
X121385557Y-67880304D01*
X121309366Y-67842209D01*
X122376033Y-67880304D02*
X122376033Y-67461257D01*
X122337938Y-67385066D01*
X122261747Y-67346971D01*
X122109366Y-67346971D01*
X122033176Y-67385066D01*
X122376033Y-67842209D02*
X122299842Y-67880304D01*
X122109366Y-67880304D01*
X122033176Y-67842209D01*
X121995080Y-67766019D01*
X121995080Y-67689828D01*
X122033176Y-67613638D01*
X122109366Y-67575542D01*
X122299842Y-67575542D01*
X122376033Y-67537447D01*
X122718890Y-67842209D02*
X122795080Y-67880304D01*
X122947461Y-67880304D01*
X123023652Y-67842209D01*
X123061747Y-67766019D01*
X123061747Y-67727923D01*
X123023652Y-67651733D01*
X122947461Y-67613638D01*
X122833176Y-67613638D01*
X122756985Y-67575542D01*
X122718890Y-67499352D01*
X122718890Y-67461257D01*
X122756985Y-67385066D01*
X122833176Y-67346971D01*
X122947461Y-67346971D01*
X123023652Y-67385066D01*
X123290319Y-67346971D02*
X123595080Y-67346971D01*
X123404604Y-67080304D02*
X123404604Y-67766019D01*
X123442700Y-67842209D01*
X123518890Y-67880304D01*
X123595080Y-67880304D01*
X124204604Y-67880304D02*
X124204604Y-67461257D01*
X124166509Y-67385066D01*
X124090319Y-67346971D01*
X123937938Y-67346971D01*
X123861747Y-67385066D01*
X124204604Y-67842209D02*
X124128414Y-67880304D01*
X123937938Y-67880304D01*
X123861747Y-67842209D01*
X123823652Y-67766019D01*
X123823652Y-67689828D01*
X123861747Y-67613638D01*
X123937938Y-67575542D01*
X124128414Y-67575542D01*
X124204604Y-67537447D01*
X124585557Y-67880304D02*
X124585557Y-67346971D01*
X124585557Y-67499352D02*
X124623652Y-67423161D01*
X124661747Y-67385066D01*
X124737938Y-67346971D01*
X124814128Y-67346971D01*
X125423652Y-67880304D02*
X125423652Y-67080304D01*
X125423652Y-67842209D02*
X125347461Y-67880304D01*
X125195080Y-67880304D01*
X125118890Y-67842209D01*
X125080795Y-67804114D01*
X125042700Y-67727923D01*
X125042700Y-67499352D01*
X125080795Y-67423161D01*
X125118890Y-67385066D01*
X125195080Y-67346971D01*
X125347461Y-67346971D01*
X125423652Y-67385066D01*
X127508533Y-114316780D02*
X127175200Y-113840590D01*
X126937104Y-114316780D02*
X126937104Y-113316780D01*
X127318057Y-113316780D01*
X127413295Y-113364400D01*
X127460914Y-113412019D01*
X127508533Y-113507257D01*
X127508533Y-113650114D01*
X127460914Y-113745352D01*
X127413295Y-113792971D01*
X127318057Y-113840590D01*
X126937104Y-113840590D01*
X127889485Y-113412019D02*
X127937104Y-113364400D01*
X128032342Y-113316780D01*
X128270438Y-113316780D01*
X128365676Y-113364400D01*
X128413295Y-113412019D01*
X128460914Y-113507257D01*
X128460914Y-113602495D01*
X128413295Y-113745352D01*
X127841866Y-114316780D01*
X128460914Y-114316780D01*
X116322819Y-140116780D02*
X116322819Y-139116780D01*
X116560914Y-139116780D01*
X116703771Y-139164400D01*
X116799009Y-139259638D01*
X116846628Y-139354876D01*
X116894247Y-139545352D01*
X116894247Y-139688209D01*
X116846628Y-139878685D01*
X116799009Y-139973923D01*
X116703771Y-140069161D01*
X116560914Y-140116780D01*
X116322819Y-140116780D01*
X117465676Y-140116780D02*
X117370438Y-140069161D01*
X117322819Y-140021542D01*
X117275200Y-139926304D01*
X117275200Y-139640590D01*
X117322819Y-139545352D01*
X117370438Y-139497733D01*
X117465676Y-139450114D01*
X117608533Y-139450114D01*
X117703771Y-139497733D01*
X117751390Y-139545352D01*
X117799009Y-139640590D01*
X117799009Y-139926304D01*
X117751390Y-140021542D01*
X117703771Y-140069161D01*
X117608533Y-140116780D01*
X117465676Y-140116780D01*
X118656152Y-139450114D02*
X118656152Y-140116780D01*
X118227580Y-139450114D02*
X118227580Y-139973923D01*
X118275200Y-140069161D01*
X118370438Y-140116780D01*
X118513295Y-140116780D01*
X118608533Y-140069161D01*
X118656152Y-140021542D01*
X118989485Y-139450114D02*
X119370438Y-139450114D01*
X119132342Y-139116780D02*
X119132342Y-139973923D01*
X119179961Y-140069161D01*
X119275200Y-140116780D01*
X119370438Y-140116780D01*
X128727580Y-136392971D02*
X129727580Y-136059637D01*
X128727580Y-135726304D01*
X129679961Y-134964399D02*
X129727580Y-135059637D01*
X129727580Y-135250114D01*
X129679961Y-135345352D01*
X129632342Y-135392971D01*
X129537104Y-135440590D01*
X129251390Y-135440590D01*
X129156152Y-135392971D01*
X129108533Y-135345352D01*
X129060914Y-135250114D01*
X129060914Y-135059637D01*
X129108533Y-134964399D01*
X129679961Y-134107256D02*
X129727580Y-134202495D01*
X129727580Y-134392971D01*
X129679961Y-134488209D01*
X129632342Y-134535828D01*
X129537104Y-134583447D01*
X129251390Y-134583447D01*
X129156152Y-134535828D01*
X129108533Y-134488209D01*
X129060914Y-134392971D01*
X129060914Y-134202495D01*
X129108533Y-134107256D01*
X129927580Y-142616780D02*
X128927580Y-142616780D01*
X128927580Y-142378685D01*
X128975200Y-142235828D01*
X129070438Y-142140590D01*
X129165676Y-142092971D01*
X129356152Y-142045352D01*
X129499009Y-142045352D01*
X129689485Y-142092971D01*
X129784723Y-142140590D01*
X129879961Y-142235828D01*
X129927580Y-142378685D01*
X129927580Y-142616780D01*
X129927580Y-141616780D02*
X129260914Y-141616780D01*
X128927580Y-141616780D02*
X128975200Y-141664400D01*
X129022819Y-141616780D01*
X128975200Y-141569161D01*
X128927580Y-141616780D01*
X129022819Y-141616780D01*
X129260914Y-141140590D02*
X129927580Y-141140590D01*
X129356152Y-141140590D02*
X129308533Y-141092971D01*
X129260914Y-140997733D01*
X129260914Y-140854876D01*
X129308533Y-140759638D01*
X129403771Y-140712019D01*
X129927580Y-140712019D01*
X116908533Y-119516780D02*
X116575200Y-119040590D01*
X116337104Y-119516780D02*
X116337104Y-118516780D01*
X116718057Y-118516780D01*
X116813295Y-118564400D01*
X116860914Y-118612019D01*
X116908533Y-118707257D01*
X116908533Y-118850114D01*
X116860914Y-118945352D01*
X116813295Y-118992971D01*
X116718057Y-119040590D01*
X116337104Y-119040590D01*
X117765676Y-118516780D02*
X117575200Y-118516780D01*
X117479961Y-118564400D01*
X117432342Y-118612019D01*
X117337104Y-118754876D01*
X117289485Y-118945352D01*
X117289485Y-119326304D01*
X117337104Y-119421542D01*
X117384723Y-119469161D01*
X117479961Y-119516780D01*
X117670438Y-119516780D01*
X117765676Y-119469161D01*
X117813295Y-119421542D01*
X117860914Y-119326304D01*
X117860914Y-119088209D01*
X117813295Y-118992971D01*
X117765676Y-118945352D01*
X117670438Y-118897733D01*
X117479961Y-118897733D01*
X117384723Y-118945352D01*
X117337104Y-118992971D01*
X117289485Y-119088209D01*
X127508533Y-119516780D02*
X127175200Y-119040590D01*
X126937104Y-119516780D02*
X126937104Y-118516780D01*
X127318057Y-118516780D01*
X127413295Y-118564400D01*
X127460914Y-118612019D01*
X127508533Y-118707257D01*
X127508533Y-118850114D01*
X127460914Y-118945352D01*
X127413295Y-118992971D01*
X127318057Y-119040590D01*
X126937104Y-119040590D01*
X128365676Y-118516780D02*
X128175200Y-118516780D01*
X128079961Y-118564400D01*
X128032342Y-118612019D01*
X127937104Y-118754876D01*
X127889485Y-118945352D01*
X127889485Y-119326304D01*
X127937104Y-119421542D01*
X127984723Y-119469161D01*
X128079961Y-119516780D01*
X128270438Y-119516780D01*
X128365676Y-119469161D01*
X128413295Y-119421542D01*
X128460914Y-119326304D01*
X128460914Y-119088209D01*
X128413295Y-118992971D01*
X128365676Y-118945352D01*
X128270438Y-118897733D01*
X128079961Y-118897733D01*
X127984723Y-118945352D01*
X127937104Y-118992971D01*
X127889485Y-119088209D01*
X127508533Y-115616780D02*
X127175200Y-115140590D01*
X126937104Y-115616780D02*
X126937104Y-114616780D01*
X127318057Y-114616780D01*
X127413295Y-114664400D01*
X127460914Y-114712019D01*
X127508533Y-114807257D01*
X127508533Y-114950114D01*
X127460914Y-115045352D01*
X127413295Y-115092971D01*
X127318057Y-115140590D01*
X126937104Y-115140590D01*
X128460914Y-115616780D02*
X127889485Y-115616780D01*
X128175200Y-115616780D02*
X128175200Y-114616780D01*
X128079961Y-114759638D01*
X127984723Y-114854876D01*
X127889485Y-114902495D01*
X116908533Y-118216780D02*
X116575200Y-117740590D01*
X116337104Y-118216780D02*
X116337104Y-117216780D01*
X116718057Y-117216780D01*
X116813295Y-117264400D01*
X116860914Y-117312019D01*
X116908533Y-117407257D01*
X116908533Y-117550114D01*
X116860914Y-117645352D01*
X116813295Y-117692971D01*
X116718057Y-117740590D01*
X116337104Y-117740590D01*
X117813295Y-117216780D02*
X117337104Y-117216780D01*
X117289485Y-117692971D01*
X117337104Y-117645352D01*
X117432342Y-117597733D01*
X117670438Y-117597733D01*
X117765676Y-117645352D01*
X117813295Y-117692971D01*
X117860914Y-117788209D01*
X117860914Y-118026304D01*
X117813295Y-118121542D01*
X117765676Y-118169161D01*
X117670438Y-118216780D01*
X117432342Y-118216780D01*
X117337104Y-118169161D01*
X117289485Y-118121542D01*
X116846628Y-137864400D02*
X116751390Y-137816780D01*
X116608533Y-137816780D01*
X116465676Y-137864400D01*
X116370438Y-137959638D01*
X116322819Y-138054876D01*
X116275200Y-138245352D01*
X116275200Y-138388209D01*
X116322819Y-138578685D01*
X116370438Y-138673923D01*
X116465676Y-138769161D01*
X116608533Y-138816780D01*
X116703771Y-138816780D01*
X116846628Y-138769161D01*
X116894247Y-138721542D01*
X116894247Y-138388209D01*
X116703771Y-138388209D01*
X117322819Y-138150114D02*
X117322819Y-138816780D01*
X117322819Y-138245352D02*
X117370438Y-138197733D01*
X117465676Y-138150114D01*
X117608533Y-138150114D01*
X117703771Y-138197733D01*
X117751390Y-138292971D01*
X117751390Y-138816780D01*
X118656152Y-138816780D02*
X118656152Y-137816780D01*
X118656152Y-138769161D02*
X118560914Y-138816780D01*
X118370438Y-138816780D01*
X118275200Y-138769161D01*
X118227581Y-138721542D01*
X118179962Y-138626304D01*
X118179962Y-138340590D01*
X118227581Y-138245352D01*
X118275200Y-138197733D01*
X118370438Y-138150114D01*
X118560914Y-138150114D01*
X118656152Y-138197733D01*
X125794247Y-139764400D02*
X125699009Y-139716780D01*
X125556152Y-139716780D01*
X125413295Y-139764400D01*
X125318057Y-139859638D01*
X125270438Y-139954876D01*
X125222819Y-140145352D01*
X125222819Y-140288209D01*
X125270438Y-140478685D01*
X125318057Y-140573923D01*
X125413295Y-140669161D01*
X125556152Y-140716780D01*
X125651390Y-140716780D01*
X125794247Y-140669161D01*
X125841866Y-140621542D01*
X125841866Y-140288209D01*
X125651390Y-140288209D01*
X126270438Y-140050114D02*
X126270438Y-140716780D01*
X126270438Y-140145352D02*
X126318057Y-140097733D01*
X126413295Y-140050114D01*
X126556152Y-140050114D01*
X126651390Y-140097733D01*
X126699009Y-140192971D01*
X126699009Y-140716780D01*
X127603771Y-140716780D02*
X127603771Y-139716780D01*
X127603771Y-140669161D02*
X127508533Y-140716780D01*
X127318057Y-140716780D01*
X127222819Y-140669161D01*
X127175200Y-140621542D01*
X127127581Y-140526304D01*
X127127581Y-140240590D01*
X127175200Y-140145352D01*
X127222819Y-140097733D01*
X127318057Y-140050114D01*
X127508533Y-140050114D01*
X127603771Y-140097733D01*
X116908533Y-113016780D02*
X116575200Y-112540590D01*
X116337104Y-113016780D02*
X116337104Y-112016780D01*
X116718057Y-112016780D01*
X116813295Y-112064400D01*
X116860914Y-112112019D01*
X116908533Y-112207257D01*
X116908533Y-112350114D01*
X116860914Y-112445352D01*
X116813295Y-112492971D01*
X116718057Y-112540590D01*
X116337104Y-112540590D01*
X117241866Y-112016780D02*
X117860914Y-112016780D01*
X117527580Y-112397733D01*
X117670438Y-112397733D01*
X117765676Y-112445352D01*
X117813295Y-112492971D01*
X117860914Y-112588209D01*
X117860914Y-112826304D01*
X117813295Y-112921542D01*
X117765676Y-112969161D01*
X117670438Y-113016780D01*
X117384723Y-113016780D01*
X117289485Y-112969161D01*
X117241866Y-112921542D01*
X116908533Y-115616780D02*
X116575200Y-115140590D01*
X116337104Y-115616780D02*
X116337104Y-114616780D01*
X116718057Y-114616780D01*
X116813295Y-114664400D01*
X116860914Y-114712019D01*
X116908533Y-114807257D01*
X116908533Y-114950114D01*
X116860914Y-115045352D01*
X116813295Y-115092971D01*
X116718057Y-115140590D01*
X116337104Y-115140590D01*
X117860914Y-115616780D02*
X117289485Y-115616780D01*
X117575200Y-115616780D02*
X117575200Y-114616780D01*
X117479961Y-114759638D01*
X117384723Y-114854876D01*
X117289485Y-114902495D01*
X116908533Y-114316780D02*
X116575200Y-113840590D01*
X116337104Y-114316780D02*
X116337104Y-113316780D01*
X116718057Y-113316780D01*
X116813295Y-113364400D01*
X116860914Y-113412019D01*
X116908533Y-113507257D01*
X116908533Y-113650114D01*
X116860914Y-113745352D01*
X116813295Y-113792971D01*
X116718057Y-113840590D01*
X116337104Y-113840590D01*
X117289485Y-113412019D02*
X117337104Y-113364400D01*
X117432342Y-113316780D01*
X117670438Y-113316780D01*
X117765676Y-113364400D01*
X117813295Y-113412019D01*
X117860914Y-113507257D01*
X117860914Y-113602495D01*
X117813295Y-113745352D01*
X117241866Y-114316780D01*
X117860914Y-114316780D01*
X114893176Y-97266304D02*
X114893176Y-96466304D01*
X114893176Y-96771066D02*
X114969366Y-96732971D01*
X115121747Y-96732971D01*
X115197938Y-96771066D01*
X115236033Y-96809161D01*
X115274128Y-96885352D01*
X115274128Y-97113923D01*
X115236033Y-97190114D01*
X115197938Y-97228209D01*
X115121747Y-97266304D01*
X114969366Y-97266304D01*
X114893176Y-97228209D01*
X115959842Y-97266304D02*
X115959842Y-96847257D01*
X115921747Y-96771066D01*
X115845557Y-96732971D01*
X115693176Y-96732971D01*
X115616985Y-96771066D01*
X115959842Y-97228209D02*
X115883652Y-97266304D01*
X115693176Y-97266304D01*
X115616985Y-97228209D01*
X115578890Y-97152019D01*
X115578890Y-97075828D01*
X115616985Y-96999638D01*
X115693176Y-96961542D01*
X115883652Y-96961542D01*
X115959842Y-96923447D01*
X116302700Y-97228209D02*
X116378890Y-97266304D01*
X116531271Y-97266304D01*
X116607461Y-97228209D01*
X116645557Y-97152019D01*
X116645557Y-97113923D01*
X116607461Y-97037733D01*
X116531271Y-96999638D01*
X116416985Y-96999638D01*
X116340795Y-96961542D01*
X116302700Y-96885352D01*
X116302700Y-96847257D01*
X116340795Y-96771066D01*
X116416985Y-96732971D01*
X116531271Y-96732971D01*
X116607461Y-96771066D01*
X116874128Y-96732971D02*
X117178890Y-96732971D01*
X116988414Y-96466304D02*
X116988414Y-97152019D01*
X117026509Y-97228209D01*
X117102700Y-97266304D01*
X117178890Y-97266304D01*
X117788414Y-97266304D02*
X117788414Y-96847257D01*
X117750319Y-96771066D01*
X117674128Y-96732971D01*
X117521747Y-96732971D01*
X117445557Y-96771066D01*
X117788414Y-97228209D02*
X117712223Y-97266304D01*
X117521747Y-97266304D01*
X117445557Y-97228209D01*
X117407461Y-97152019D01*
X117407461Y-97075828D01*
X117445557Y-96999638D01*
X117521747Y-96961542D01*
X117712223Y-96961542D01*
X117788414Y-96923447D01*
X118169366Y-97266304D02*
X118169366Y-96732971D01*
X118169366Y-96885352D02*
X118207461Y-96809161D01*
X118245557Y-96771066D01*
X118321747Y-96732971D01*
X118397938Y-96732971D01*
X119007461Y-97266304D02*
X119007461Y-96466304D01*
X119007461Y-97228209D02*
X118931271Y-97266304D01*
X118778890Y-97266304D01*
X118702700Y-97228209D01*
X118664604Y-97190114D01*
X118626509Y-97113923D01*
X118626509Y-96885352D01*
X118664604Y-96809161D01*
X118702700Y-96771066D01*
X118778890Y-96732971D01*
X118931271Y-96732971D01*
X119007461Y-96771066D01*
X119388414Y-97266304D02*
X119388414Y-96466304D01*
X119464604Y-96961542D02*
X119693176Y-97266304D01*
X119693176Y-96732971D02*
X119388414Y-97037733D01*
X120036033Y-97266304D02*
X120036033Y-96466304D01*
X120036033Y-96771066D02*
X120112223Y-96732971D01*
X120264604Y-96732971D01*
X120340795Y-96771066D01*
X120378890Y-96809161D01*
X120416985Y-96885352D01*
X120416985Y-97113923D01*
X120378890Y-97190114D01*
X120340795Y-97228209D01*
X120264604Y-97266304D01*
X120112223Y-97266304D01*
X120036033Y-97228209D01*
X120759842Y-97190114D02*
X120797938Y-97228209D01*
X120759842Y-97266304D01*
X120721747Y-97228209D01*
X120759842Y-97190114D01*
X120759842Y-97266304D01*
X121483652Y-97228209D02*
X121407461Y-97266304D01*
X121255080Y-97266304D01*
X121178890Y-97228209D01*
X121140795Y-97190114D01*
X121102700Y-97113923D01*
X121102700Y-96885352D01*
X121140795Y-96809161D01*
X121178890Y-96771066D01*
X121255080Y-96732971D01*
X121407461Y-96732971D01*
X121483652Y-96771066D01*
X121940795Y-97266304D02*
X121864604Y-97228209D01*
X121826509Y-97190114D01*
X121788414Y-97113923D01*
X121788414Y-96885352D01*
X121826509Y-96809161D01*
X121864604Y-96771066D01*
X121940795Y-96732971D01*
X122055080Y-96732971D01*
X122131271Y-96771066D01*
X122169366Y-96809161D01*
X122207461Y-96885352D01*
X122207461Y-97113923D01*
X122169366Y-97190114D01*
X122131271Y-97228209D01*
X122055080Y-97266304D01*
X121940795Y-97266304D01*
X122550319Y-97266304D02*
X122550319Y-96732971D01*
X122550319Y-96809161D02*
X122588414Y-96771066D01*
X122664604Y-96732971D01*
X122778890Y-96732971D01*
X122855080Y-96771066D01*
X122893176Y-96847257D01*
X122893176Y-97266304D01*
X122893176Y-96847257D02*
X122931271Y-96771066D01*
X123007461Y-96732971D01*
X123121747Y-96732971D01*
X123197938Y-96771066D01*
X123236033Y-96847257D01*
X123236033Y-97266304D01*
X117217104Y-55584876D02*
X116417104Y-55584876D01*
X116417104Y-55394400D01*
X116455200Y-55280114D01*
X116531390Y-55203923D01*
X116607580Y-55165828D01*
X116759961Y-55127733D01*
X116874247Y-55127733D01*
X117026628Y-55165828D01*
X117102819Y-55203923D01*
X117179009Y-55280114D01*
X117217104Y-55394400D01*
X117217104Y-55584876D01*
X117217104Y-54365828D02*
X117217104Y-54822971D01*
X117217104Y-54594400D02*
X116417104Y-54594400D01*
X116531390Y-54670590D01*
X116607580Y-54746780D01*
X116645676Y-54822971D01*
X117217104Y-170284876D02*
X116417104Y-170284876D01*
X116417104Y-170094400D01*
X116455200Y-169980114D01*
X116531390Y-169903923D01*
X116607580Y-169865828D01*
X116759961Y-169827733D01*
X116874247Y-169827733D01*
X117026628Y-169865828D01*
X117102819Y-169903923D01*
X117179009Y-169980114D01*
X117217104Y-170094400D01*
X117217104Y-170284876D01*
X116417104Y-169142019D02*
X116417104Y-169294400D01*
X116455200Y-169370590D01*
X116493295Y-169408685D01*
X116607580Y-169484876D01*
X116759961Y-169522971D01*
X117064723Y-169522971D01*
X117140914Y-169484876D01*
X117179009Y-169446780D01*
X117217104Y-169370590D01*
X117217104Y-169218209D01*
X117179009Y-169142019D01*
X117140914Y-169103923D01*
X117064723Y-169065828D01*
X116874247Y-169065828D01*
X116798057Y-169103923D01*
X116759961Y-169142019D01*
X116721866Y-169218209D01*
X116721866Y-169370590D01*
X116759961Y-169446780D01*
X116798057Y-169484876D01*
X116874247Y-169522971D01*
X117217104Y-123894876D02*
X116417104Y-123894876D01*
X116417104Y-123704400D01*
X116455200Y-123590114D01*
X116531390Y-123513923D01*
X116607580Y-123475828D01*
X116759961Y-123437733D01*
X116874247Y-123437733D01*
X117026628Y-123475828D01*
X117102819Y-123513923D01*
X117179009Y-123590114D01*
X117217104Y-123704400D01*
X117217104Y-123894876D01*
X116683771Y-122752019D02*
X117217104Y-122752019D01*
X116379009Y-122942495D02*
X116950438Y-123132971D01*
X116950438Y-122637733D01*
X117217104Y-147014876D02*
X116417104Y-147014876D01*
X116417104Y-146824400D01*
X116455200Y-146710114D01*
X116531390Y-146633923D01*
X116607580Y-146595828D01*
X116759961Y-146557733D01*
X116874247Y-146557733D01*
X117026628Y-146595828D01*
X117102819Y-146633923D01*
X117179009Y-146710114D01*
X117217104Y-146824400D01*
X117217104Y-147014876D01*
X116417104Y-145833923D02*
X116417104Y-146214876D01*
X116798057Y-146252971D01*
X116759961Y-146214876D01*
X116721866Y-146138685D01*
X116721866Y-145948209D01*
X116759961Y-145872019D01*
X116798057Y-145833923D01*
X116874247Y-145795828D01*
X117064723Y-145795828D01*
X117140914Y-145833923D01*
X117179009Y-145872019D01*
X117217104Y-145948209D01*
X117217104Y-146138685D01*
X117179009Y-146214876D01*
X117140914Y-146252971D01*
X117217104Y-101624876D02*
X116417104Y-101624876D01*
X116417104Y-101434400D01*
X116455200Y-101320114D01*
X116531390Y-101243923D01*
X116607580Y-101205828D01*
X116759961Y-101167733D01*
X116874247Y-101167733D01*
X117026628Y-101205828D01*
X117102819Y-101243923D01*
X117179009Y-101320114D01*
X117217104Y-101434400D01*
X117217104Y-101624876D01*
X116417104Y-100901066D02*
X116417104Y-100405828D01*
X116721866Y-100672495D01*
X116721866Y-100558209D01*
X116759961Y-100482019D01*
X116798057Y-100443923D01*
X116874247Y-100405828D01*
X117064723Y-100405828D01*
X117140914Y-100443923D01*
X117179009Y-100482019D01*
X117217104Y-100558209D01*
X117217104Y-100786780D01*
X117179009Y-100862971D01*
X117140914Y-100901066D01*
X125332342Y-137331066D02*
X125379961Y-137378685D01*
X125427580Y-137521542D01*
X125427580Y-137616780D01*
X125379961Y-137759638D01*
X125284723Y-137854876D01*
X125189485Y-137902495D01*
X124999009Y-137950114D01*
X124856152Y-137950114D01*
X124665676Y-137902495D01*
X124570438Y-137854876D01*
X124475200Y-137759638D01*
X124427580Y-137616780D01*
X124427580Y-137521542D01*
X124475200Y-137378685D01*
X124522819Y-137331066D01*
X125427580Y-136378685D02*
X125427580Y-136950114D01*
X125427580Y-136664400D02*
X124427580Y-136664400D01*
X124570438Y-136759638D01*
X124665676Y-136854876D01*
X124713295Y-136950114D01*
X117217104Y-78354876D02*
X116417104Y-78354876D01*
X116417104Y-78164400D01*
X116455200Y-78050114D01*
X116531390Y-77973923D01*
X116607580Y-77935828D01*
X116759961Y-77897733D01*
X116874247Y-77897733D01*
X117026628Y-77935828D01*
X117102819Y-77973923D01*
X117179009Y-78050114D01*
X117217104Y-78164400D01*
X117217104Y-78354876D01*
X116493295Y-77592971D02*
X116455200Y-77554876D01*
X116417104Y-77478685D01*
X116417104Y-77288209D01*
X116455200Y-77212019D01*
X116493295Y-77173923D01*
X116569485Y-77135828D01*
X116645676Y-77135828D01*
X116759961Y-77173923D01*
X117217104Y-77631066D01*
X117217104Y-77135828D01*
D11*
X126830200Y-76490400D02*
X126330200Y-76490400D01*
X126330200Y-76490400D02*
X126330200Y-75590400D01*
X126330200Y-75590400D02*
X126830200Y-75590400D01*
X126830200Y-75590400D02*
X126830200Y-76490400D01*
G36*
X126830200Y-76490400D02*
G01*
X126330200Y-76490400D01*
X126330200Y-75590400D01*
X126830200Y-75590400D01*
X126830200Y-76490400D01*
G37*
X126830200Y-76490400D02*
X126330200Y-76490400D01*
X126330200Y-75590400D01*
X126830200Y-75590400D01*
X126830200Y-76490400D01*
X115255200Y-54044400D02*
X115905200Y-54994400D01*
X115255200Y-54044400D02*
X114605200Y-54044400D01*
X115905200Y-54994400D02*
X114655200Y-54994400D01*
X115255200Y-54044400D02*
X115955200Y-54044400D01*
X114655200Y-54994400D02*
X115255200Y-54044400D01*
D10*
X115982700Y-177334400D02*
X115982700Y-176953400D01*
X127412700Y-179493400D02*
X127412700Y-179874400D01*
X115982700Y-173905400D02*
X115982700Y-173524400D01*
X115982700Y-173524400D02*
X116363700Y-173524400D01*
X122332700Y-175429400D02*
X124532700Y-175429400D01*
X127412700Y-179874400D02*
X118522700Y-179874400D01*
X118141700Y-173524400D02*
X119792701Y-173524399D01*
X118522700Y-179874400D02*
G75*
G02*
X115982700Y-177334400I0J2540000D01*
G01*
X122332700Y-175429400D02*
G75*
G02*
X119792701Y-173524399I-97690J2515578D01*
G01*
X115982700Y-154384400D02*
X115982700Y-154003400D01*
X127412700Y-156543400D02*
X127412700Y-156924400D01*
X122332700Y-152479400D02*
X124532700Y-152479400D01*
X127412700Y-156924400D02*
X118522700Y-156924400D01*
X115982700Y-150574400D02*
X116363700Y-150574400D01*
X118141700Y-150574400D02*
X119792701Y-150574399D01*
X115982700Y-150955400D02*
X115982700Y-150574400D01*
X118522700Y-156924400D02*
G75*
G02*
X115982700Y-154384400I0J2540000D01*
G01*
X122332700Y-152479400D02*
G75*
G02*
X119792701Y-150574399I-97690J2515578D01*
G01*
D11*
X115255200Y-168744400D02*
X114605200Y-168744400D01*
X115255200Y-168744400D02*
X115905200Y-169694400D01*
X114655200Y-169694400D02*
X115255200Y-168744400D01*
X115905200Y-169694400D02*
X114655200Y-169694400D01*
X115255200Y-168744400D02*
X115955200Y-168744400D01*
X126830200Y-53539400D02*
X126330200Y-53539400D01*
X126330200Y-53539400D02*
X126330200Y-52639400D01*
X126330200Y-52639400D02*
X126830200Y-52639400D01*
X126830200Y-52639400D02*
X126830200Y-53539400D01*
G36*
X126830200Y-53539400D02*
G01*
X126330200Y-53539400D01*
X126330200Y-52639400D01*
X126830200Y-52639400D01*
X126830200Y-53539400D01*
G37*
X126830200Y-53539400D02*
X126330200Y-53539400D01*
X126330200Y-52639400D01*
X126830200Y-52639400D01*
X126830200Y-53539400D01*
X126830200Y-145343400D02*
X126330200Y-145343400D01*
X126330200Y-145343400D02*
X126330200Y-144443400D01*
X126330200Y-144443400D02*
X126830200Y-144443400D01*
X126830200Y-144443400D02*
X126830200Y-145343400D01*
G36*
X126830200Y-145343400D02*
G01*
X126330200Y-145343400D01*
X126330200Y-144443400D01*
X126830200Y-144443400D01*
X126830200Y-145343400D01*
G37*
X126830200Y-145343400D02*
X126330200Y-145343400D01*
X126330200Y-144443400D01*
X126830200Y-144443400D01*
X126830200Y-145343400D01*
X115255200Y-122354400D02*
X114605200Y-122354400D01*
X115905200Y-123304400D02*
X114655200Y-123304400D01*
X115255200Y-122354400D02*
X115905200Y-123304400D01*
X115255200Y-122354400D02*
X115955200Y-122354400D01*
X114655200Y-123304400D02*
X115255200Y-122354400D01*
X115255200Y-145474400D02*
X115905200Y-146424400D01*
X114655200Y-146424400D02*
X115255200Y-145474400D01*
X115255200Y-145474400D02*
X114605200Y-145474400D01*
X115255200Y-145474400D02*
X115955200Y-145474400D01*
X115905200Y-146424400D02*
X114655200Y-146424400D01*
X115905200Y-101034400D02*
X114655200Y-101034400D01*
X114655200Y-101034400D02*
X115255200Y-100084400D01*
X115255200Y-100084400D02*
X115905200Y-101034400D01*
X115255200Y-100084400D02*
X114605200Y-100084400D01*
X115255200Y-100084400D02*
X115955200Y-100084400D01*
D10*
X127412700Y-133974400D02*
X118522700Y-133974400D01*
X122332700Y-129529400D02*
X124532700Y-129529400D01*
X115982700Y-131434400D02*
X115982700Y-131053400D01*
X115982700Y-128005400D02*
X115982700Y-127624400D01*
X127412700Y-133593400D02*
X127412700Y-133974400D01*
X115982700Y-127624400D02*
X116363700Y-127624400D01*
X118141700Y-127624400D02*
X119792701Y-127624399D01*
X122332700Y-129529400D02*
G75*
G02*
X119792701Y-127624399I-97690J2515578D01*
G01*
X118522700Y-133974400D02*
G75*
G02*
X115982700Y-131434400I0J2540000D01*
G01*
D11*
X126830200Y-122392400D02*
X126330200Y-122392400D01*
X126330200Y-122392400D02*
X126330200Y-121492400D01*
X126330200Y-121492400D02*
X126830200Y-121492400D01*
X126830200Y-121492400D02*
X126830200Y-122392400D01*
G36*
X126830200Y-122392400D02*
G01*
X126330200Y-122392400D01*
X126330200Y-121492400D01*
X126830200Y-121492400D01*
X126830200Y-122392400D01*
G37*
X126830200Y-122392400D02*
X126330200Y-122392400D01*
X126330200Y-121492400D01*
X126830200Y-121492400D01*
X126830200Y-122392400D01*
D10*
X118141700Y-58774400D02*
X119792701Y-58774399D01*
X115982700Y-58774400D02*
X116363700Y-58774400D01*
X115982700Y-62584400D02*
X115982700Y-62203400D01*
X127412700Y-64743400D02*
X127412700Y-65124400D01*
X127412700Y-65124400D02*
X118522700Y-65124400D01*
X122332700Y-60679400D02*
X124532700Y-60679400D01*
X115982700Y-59155400D02*
X115982700Y-58774400D01*
X122332700Y-60679400D02*
G75*
G02*
X119792701Y-58774399I-97690J2515578D01*
G01*
X118522700Y-65124400D02*
G75*
G02*
X115982700Y-62584400I0J2540000D01*
G01*
X127412700Y-88074400D02*
X118522700Y-88074400D01*
X122332700Y-83629400D02*
X124532700Y-83629400D01*
X115982700Y-82105400D02*
X115982700Y-81724400D01*
X115982700Y-85534400D02*
X115982700Y-85153400D01*
X118141700Y-81724400D02*
X119792701Y-81724399D01*
X115982700Y-81724400D02*
X116363700Y-81724400D01*
X127412700Y-87693400D02*
X127412700Y-88074400D01*
X122332700Y-83629400D02*
G75*
G02*
X119792701Y-81724399I-97690J2515578D01*
G01*
X118522700Y-88074400D02*
G75*
G02*
X115982700Y-85534400I0J2540000D01*
G01*
X127412700Y-110643400D02*
X127412700Y-111024400D01*
X115982700Y-104674400D02*
X116363700Y-104674400D01*
X118141700Y-104674400D02*
X119792701Y-104674399D01*
X127412700Y-111024400D02*
X118522700Y-111024400D01*
X122332700Y-106579400D02*
X124532700Y-106579400D01*
X115982700Y-105055400D02*
X115982700Y-104674400D01*
X115982700Y-108484400D02*
X115982700Y-108103400D01*
X122332700Y-106579400D02*
G75*
G02*
X119792701Y-104674399I-97690J2515578D01*
G01*
X118522700Y-111024400D02*
G75*
G02*
X115982700Y-108484400I0J2540000D01*
G01*
D12*
X127685200Y-136662336D02*
X127685200Y-137866464D01*
X125865200Y-136662336D02*
X125865200Y-137866464D01*
D11*
X126830200Y-99441400D02*
X126330200Y-99441400D01*
X126330200Y-99441400D02*
X126330200Y-98541400D01*
X126330200Y-98541400D02*
X126830200Y-98541400D01*
X126830200Y-98541400D02*
X126830200Y-99441400D01*
G36*
X126830200Y-99441400D02*
G01*
X126330200Y-99441400D01*
X126330200Y-98541400D01*
X126830200Y-98541400D01*
X126830200Y-99441400D01*
G37*
X126830200Y-99441400D02*
X126330200Y-99441400D01*
X126330200Y-98541400D01*
X126830200Y-98541400D01*
X126830200Y-99441400D01*
X114655200Y-77764400D02*
X115255200Y-76814400D01*
X115255200Y-76814400D02*
X114605200Y-76814400D01*
X115255200Y-76814400D02*
X115955200Y-76814400D01*
X115255200Y-76814400D02*
X115905200Y-77764400D01*
X115905200Y-77764400D02*
X114655200Y-77764400D01*
X126830200Y-168294400D02*
X126330200Y-168294400D01*
X126330200Y-168294400D02*
X126330200Y-167394400D01*
X126330200Y-167394400D02*
X126830200Y-167394400D01*
X126830200Y-167394400D02*
X126830200Y-168294400D01*
G36*
X126830200Y-168294400D02*
G01*
X126330200Y-168294400D01*
X126330200Y-167394400D01*
X126830200Y-167394400D01*
X126830200Y-168294400D01*
G37*
X126830200Y-168294400D02*
X126330200Y-168294400D01*
X126330200Y-167394400D01*
X126830200Y-167394400D01*
X126830200Y-168294400D01*
M02*
